<svg width="2000" height="2000" version="1.1" xmlns="http://www.w3.org/2000/svg" desc="Created with imagetracer.js version 1.2.6" ><path fill="rgb(246,248,253)" stroke="rgb(246,248,253)" stroke-width="1" opacity="1" d="M 1506 696 L 1552.5 696 L 1553 696.5 L 1553 1178 L 1506.5 1178 L 1506 1177.5 L 1506 696 Z " /><path fill="rgb(246,248,253)" stroke="rgb(246,248,253)" stroke-width="1" opacity="1" d="M 228.5 813 L 236 816.5 L 238 823.5 L 233.5 830 L 225.5 831 L 221 827.5 L 219 822.5 L 220 818.5 L 224.5 814 L 228.5 813 Z " /><path fill="rgb(246,248,253)" stroke="rgb(246,248,253)" stroke-width="1" opacity="1" d="M 249.5 813 Q 257.8 812 261 815 Q 263.7 817.6 263 824.5 L 258.5 831 L 251.5 832 L 244 826.5 Q 242.3 816.8 247.5 814 L 249.5 813 Z " /><path fill="rgb(246,248,253)" stroke="rgb(246,248,253)" stroke-width="1" opacity="1" d="M 270.5 815 L 275.5 815 L 288 818 L 289 822.5 L 286 830 Q 283 832.7 276.5 833 L 269 827.5 L 268 818.5 L 270.5 815 Z " /><path fill="rgb(246,248,253)" stroke="rgb(246,248,253)" stroke-width="1" opacity="1" d="M 204.5 816 Q 209.8 814.8 211 817.5 L 212 825.5 L 210 829 Q 207.7 831.6 201.5 831 L 196 826.5 L 195 821.5 L 196 818 L 204.5 816 Z " /><path fill="rgb(246,248,253)" stroke="rgb(246,248,253)" stroke-width="1" opacity="1" d="M 292.5 819 L 309.5 824 L 313 826.5 L 308.5 832 L 299.5 833 L 295 831 L 292 825.5 L 292.5 819 Z " /><path fill="rgb(246,248,253)" stroke="rgb(246,248,253)" stroke-width="1" opacity="1" d="M 184.5 821 Q 188.7 819.7 187 824.5 L 183.5 829 L 176.5 830 L 172 826.5 L 184.5 821 Z " /><path fill="rgb(246,248,253)" stroke="rgb(246,248,253)" stroke-width="1" opacity="1" d="M 318 828 L 330 833.5 L 325.5 834 L 318 829.5 L 318 828 Z " /><path fill="rgb(246,248,253)" stroke="rgb(246,248,253)" stroke-width="1" opacity="1" d="M 631.5 833 L 670.5 834 L 671.5 835 L 688.5 837 L 711.5 844 Q 746.8 857.8 769 884.5 L 779 898.5 L 780 902 L 745.5 925 L 728.5 905 Q 713.3 890.2 691.5 882 L 675.5 877 L 670.5 877 L 663.5 875 L 636.5 874 L 635.5 875 L 619.5 876 L 590.5 885 Q 564.3 896.8 547 917.5 Q 531.2 936.2 523 962.5 L 518 986.5 L 517 1017.5 L 518 1018.5 L 518 1027.5 L 521 1044.5 L 528 1065.5 Q 539.6 1092.4 560.5 1110 Q 579.1 1125.9 605.5 1134 L 630.5 1139 L 661.5 1139 L 685.5 1134 L 703.5 1127 Q 723.4 1116.9 737 1100.5 L 744.5 1090 L 746.5 1090 L 780 1113.5 L 763 1137 L 761.5 1137 L 750.5 1148 L 734.5 1159 L 714.5 1169 L 696.5 1175 L 677.5 1179 L 660.5 1180 L 659.5 1181 L 628.5 1181 L 627.5 1180 L 611.5 1179 L 593.5 1175 L 565.5 1165 Q 535.9 1151.1 515 1128.5 Q 492.4 1105.1 480 1071.5 L 472 1041.5 L 471 1027.5 L 470 1026.5 L 470 1007.5 L 469 1006.5 L 470 1005.5 L 470 987.5 L 471 986.5 L 471 979.5 L 474 962.5 L 484 932.5 Q 499.7 897.2 527.5 874 Q 547.4 856.9 573.5 846 L 598.5 838 L 613.5 835 L 630.5 834 L 631.5 833 Z " /><path fill="rgb(246,248,253)" stroke="rgb(246,248,253)" stroke-width="1" opacity="1" d="M 941.5 833 L 980.5 834 L 981.5 835 L 998.5 837 L 1021.5 844 Q 1057 857.5 1079 884.5 L 1090 901.5 L 1055.5 925 L 1035.5 902 L 1020.5 891 L 992.5 879 L 973.5 875 L 946.5 874 L 945.5 875 L 929.5 876 L 898.5 886 Q 874.5 897.5 858 916.5 Q 840.3 936.8 832 966.5 L 828 987.5 L 827 1011.5 L 828 1012.5 L 828 1026.5 L 831 1043.5 L 839 1067.5 Q 850.3 1092.2 869.5 1109 L 889.5 1123 L 909.5 1132 L 922.5 1136 L 939.5 1138 L 940.5 1139 L 971.5 1139 L 995.5 1134 L 1015.5 1126 Q 1034.7 1115.7 1048 1099.5 L 1054 1090 L 1058.5 1091 L 1090 1112 L 1090 1114.5 L 1080 1128.5 L 1066.5 1143 Q 1042.5 1165 1006.5 1175 L 988.5 1179 L 970.5 1180 L 969.5 1181 L 938.5 1181 L 937.5 1180 L 928.5 1180 L 907.5 1176 L 880.5 1167 Q 849.8 1153.7 828 1131.5 Q 801.5 1105 788 1065.5 L 782 1040.5 L 781 1025.5 L 780 1024.5 L 780 989.5 L 786 955.5 L 796 928.5 Q 811.5 896 837.5 874 Q 858.5 856 886.5 845 L 917.5 836 L 940.5 834 L 941.5 833 Z " /><path fill="rgb(246,248,253)" stroke="rgb(246,248,253)" stroke-width="1" opacity="1" d="M 1751.5 833 L 1778.5 833 L 1779.5 834 L 1796.5 835 L 1815.5 839 L 1833.5 845 Q 1873.5 861 1899 891.5 Q 1919.7 915.8 1931 949.5 L 1938 982.5 L 1939 1020.5 L 1938 1021.5 L 1938 1031.5 L 1934 1053.5 L 1924 1082.5 Q 1908.1 1117.6 1880.5 1141 Q 1856.2 1161.7 1822.5 1173 L 1790.5 1180 L 1751.5 1181 L 1750.5 1180 L 1740.5 1180 L 1718.5 1176 L 1687.5 1165 Q 1654.4 1149.6 1632 1123.5 Q 1609.4 1098.1 1598 1061.5 L 1594 1045.5 L 1593 1033.5 L 1592 1032.5 L 1592 1023.5 L 1591 1022.5 L 1591 990.5 L 1592 989.5 L 1592 981.5 L 1596 959.5 L 1604 935.5 Q 1619.9 898.4 1648.5 874 Q 1669.3 856.3 1696.5 845 L 1727.5 836 L 1740.5 835 L 1741.5 834 L 1750.5 834 L 1751.5 833 Z M 1757 874 L 1756 875 L 1740 876 L 1716 883 Q 1697 891 1683 903 Q 1661 922 1649 950 L 1641 976 L 1640 988 L 1639 989 L 1639 1006 L 1638 1007 L 1639 1009 L 1640 1033 L 1647 1060 Q 1656 1082 1670 1099 Q 1683 1114 1702 1124 L 1726 1134 L 1751 1139 L 1781 1139 L 1802 1135 Q 1828 1127 1847 1112 Q 1868 1094 1880 1067 L 1888 1042 L 1890 1032 L 1890 1024 L 1891 1023 L 1891 992 L 1885 961 L 1873 934 L 1862 918 Q 1845 897 1820 885 L 1807 880 L 1791 876 L 1776 875 L 1775 874 L 1757 874 Z " /><path fill="rgb(246,248,253)" stroke="rgb(246,248,253)" stroke-width="1" opacity="1" d="M 324.5 835 Q 334.2 833.8 337 839.5 Q 340.2 842.8 339 850.5 L 336 856 L 332.5 858 L 323.5 858 L 317 852.5 L 316 844.5 L 319 838 L 324.5 835 Z " /><path fill="rgb(246,248,253)" stroke="rgb(246,248,253)" stroke-width="1" opacity="1" d="M 276.5 836 Q 283 836.3 286 839 L 288 842.5 L 288 850.5 L 283.5 856 L 274.5 857 L 269 852.5 Q 266.7 849.3 268 842.5 L 270 839 L 276.5 836 Z " /><path fill="rgb(246,248,253)" stroke="rgb(246,248,253)" stroke-width="1" opacity="1" d="M 299.5 836 Q 310.6 834.4 313 841.5 L 314 849.5 L 309.5 856 Q 306.8 858.8 300.5 858 L 293 852.5 L 292 843.5 L 295.5 838 L 299.5 836 Z " /><path fill="rgb(246,248,253)" stroke="rgb(246,248,253)" stroke-width="1" opacity="1" d="M 1121 836 L 1167.5 836 L 1168 836.5 L 1168 1041.5 L 1169 1042.5 L 1169 1051.5 L 1170 1052.5 L 1171 1063.5 L 1177 1083.5 Q 1184.2 1101.8 1197.5 1114 Q 1210.5 1126.5 1229.5 1133 L 1245.5 1137 L 1262.5 1138 L 1263.5 1139 L 1276.5 1139 L 1277.5 1138 L 1288.5 1138 L 1305.5 1135 L 1324.5 1128 Q 1345.1 1118.1 1359 1101.5 Q 1370.4 1088.4 1377 1070.5 L 1382 1054.5 L 1384 1036.5 L 1385 1035.5 L 1385 1023.5 L 1386 1022.5 L 1386 836 L 1432.5 836 L 1433 836.5 L 1433 1178 L 1388 1178 L 1388 1117.5 L 1387 1117.5 Q 1378.1 1134.1 1364.5 1146 Q 1343.5 1165.5 1312.5 1175 L 1288.5 1180 L 1278.5 1180 L 1277.5 1181 L 1248.5 1181 L 1247.5 1180 L 1240.5 1180 L 1239.5 1179 L 1232.5 1179 L 1222.5 1177 L 1192.5 1167 Q 1171.3 1156.7 1156 1140.5 Q 1143.3 1127.2 1135 1109.5 L 1126 1083.5 L 1123 1067.5 L 1123 1060.5 L 1122 1059.5 L 1122 1048.5 L 1121 1047.5 L 1121 836 Z " /><path fill="rgb(246,248,253)" stroke="rgb(246,248,253)" stroke-width="1" opacity="1" d="M 250.5 837 Q 259.4 836.1 262 841.5 L 263 849.5 L 259.5 855 Q 257.2 857.7 251.5 857 L 244 851.5 L 243 846.5 L 244 842.5 L 248.5 838 L 250.5 837 Z " /><path fill="rgb(246,248,253)" stroke="rgb(246,248,253)" stroke-width="1" opacity="1" d="M 225.5 838 Q 234.8 836.6 237 842.5 L 238 848.5 L 233.5 855 L 225.5 856 L 221 852.5 L 219 845.5 L 223.5 839 L 225.5 838 Z " /><path fill="rgb(246,248,253)" stroke="rgb(246,248,253)" stroke-width="1" opacity="1" d="M 178.5 839 Q 184.1 839.5 186 843.5 L 187 848.5 L 183.5 854 L 177.5 855 L 173 852.5 L 171 845.5 L 175.5 840 L 178.5 839 Z " /><path fill="rgb(246,248,253)" stroke="rgb(246,248,253)" stroke-width="1" opacity="1" d="M 200.5 839 Q 210.3 837.3 212 843.5 Q 213.3 852.9 207.5 855 Q 198.5 856.5 196 851.5 L 195 845.5 L 198.5 840 L 200.5 839 Z " /><path fill="rgb(246,248,253)" stroke="rgb(246,248,253)" stroke-width="1" opacity="1" d="M 152.5 840 L 156.5 840 L 160 842 Q 161.8 844.4 161 850.5 Q 159.1 855.1 151.5 854 L 148 851.5 L 147 845.5 L 150.5 841 L 152.5 840 Z " /><path fill="rgb(246,248,253)" stroke="rgb(246,248,253)" stroke-width="1" opacity="1" d="M 342.5 840 L 362 853.5 L 359.5 857 L 356 858 Q 354.9 860.7 357.5 860 L 363 864.5 L 364.5 869 Q 365.4 863.4 369.5 861 L 371.5 861 L 388 877.5 L 387 881 L 382 883.5 L 388 888.5 L 389.5 891 L 394.5 885 L 410 908 L 408 908.5 L 413 912.5 Q 430.4 940.6 436 980.5 Q 431.5 983 437 985.5 L 438 1004.5 L 434 1007.5 L 438 1011.5 L 438 1022.5 Q 435.5 1024 437 1029.5 L 434.5 1032 L 433 1032.5 L 436 1034.5 L 435 1045.5 L 431 1062.5 L 422 1087.5 L 414.5 1101 L 412 1102.5 L 410.5 1105 L 407 1106 Q 405.9 1108.7 408.5 1108 L 410 1110.5 L 395.5 1130 L 392 1129 L 389.5 1123 L 386 1129 L 379 1131.5 L 388 1137.5 L 388 1139.5 L 372.5 1155 L 370.5 1155 L 366 1150.5 Q 363.5 1147 365 1139.5 L 369.5 1134 L 375 1131.5 Q 368.6 1130.4 366 1125.5 L 364.5 1120 Q 363.6 1126.1 359.5 1129 Q 356.2 1132.2 348.5 1131 L 341 1124.5 L 340 1117.5 Q 341.3 1111.8 345.5 1109 L 353.5 1107 L 361 1110 L 364.5 1119 Q 364.4 1111.4 369.5 1109 L 373 1108 Q 374.1 1105.3 371.5 1106 L 366 1101.5 L 364.5 1096 Q 363.4 1102.4 358.5 1105 Q 355 1107.5 347.5 1106 L 342 1101.5 Q 339 1098.5 340 1091.5 L 345.5 1084 L 350 1083 Q 351.3 1080 347.5 1081 L 342 1076.5 Q 339 1073.5 340 1066.5 L 345.5 1059 L 350 1057.5 L 343 1054 L 340 1047.5 L 340 1041.5 L 344.5 1035 Q 348.2 1031.7 356.5 1033 L 363 1038.5 L 364.5 1042 Q 365.4 1036.4 369.5 1034 L 374 1032.5 L 366 1027.5 L 364.5 1023 L 358.5 1031 Q 355.3 1033.3 348.5 1032 L 342 1027.5 Q 338.8 1024.2 340 1016.5 L 344.5 1010 Q 348.2 1006.7 356.5 1008 L 363 1013.5 L 364.5 1017 Q 365.4 1011.4 369.5 1009 L 373 1007.5 L 366 1002.5 L 364.5 998 L 358.5 1006 Q 355.3 1008.3 348.5 1007 L 342 1002.5 Q 338.8 999.2 340 991.5 L 343 986 L 349 982.5 L 346.5 982 L 341 976.5 Q 338.7 973.3 340 966.5 L 344 960 L 349 958.5 L 342 953.5 Q 338.8 950.2 340 942.5 L 345.5 935 L 350 933.5 Q 344.4 932.6 342 928.5 Q 338.8 925.2 340 917.5 L 345.5 910 L 350 908.5 Q 344.4 907.6 342 903.5 Q 339 900.5 340 893.5 L 343 887 L 349 885 Q 350.1 882.3 347.5 883 L 342 878.5 Q 339 875.5 340 868.5 L 345.5 861 L 349 860 Q 350.3 857 346.5 858 L 340 849.5 L 340 844.5 L 342.5 840 Z M 365 874 L 363 879 Q 361 883 356 883 Q 355 886 359 885 L 365 893 L 368 886 L 371 885 Q 373 886 372 884 L 370 882 Q 365 880 365 874 Z M 365 899 L 362 905 Q 360 908 354 909 L 361 911 L 365 918 L 366 914 L 373 909 L 370 907 Q 365 905 365 899 Z M 390 901 L 389 903 L 381 909 L 385 910 L 390 916 L 390 914 L 396 909 L 395 908 L 390 901 Z M 365 924 L 362 930 L 354 934 L 360 935 Q 364 937 365 943 L 366 939 L 372 934 L 369 931 L 365 924 Z M 390 926 L 388 929 L 382 934 L 387 936 L 390 940 L 391 936 L 396 934 L 395 933 L 390 926 Z M 413 928 L 413 930 L 408 934 L 413 936 L 415 939 L 419 932 L 415 930 Q 416 927 413 928 Z M 365 949 L 363 953 L 355 959 L 360 960 L 365 967 L 366 964 L 372 959 Q 373 956 371 957 L 365 952 L 365 949 Z M 390 951 L 388 954 L 382 959 L 386 960 L 390 965 L 395 958 L 392 956 L 390 951 Z M 414 953 L 412 956 L 408 959 L 414 963 L 419 959 L 418 956 Q 415 957 416 955 L 414 953 Z M 365 973 L 363 978 Q 361 982 355 983 L 360 985 L 365 992 L 367 986 L 372 984 Q 373 981 371 982 Q 366 979 365 973 Z M 390 976 L 382 983 L 386 985 L 390 990 L 396 983 L 395 982 L 390 976 Z M 415 977 L 410 982 Q 407 981 408 984 L 415 988 L 416 985 L 420 983 L 419 982 L 415 977 Z M 388 1001 L 388 1003 L 381 1008 L 385 1009 L 390 1015 L 391 1012 L 396 1008 L 390 1003 Q 391 1000 388 1001 Z M 413 1002 L 413 1004 L 408 1008 L 411 1009 L 413 1013 L 420 1008 L 415 1004 Q 416 1001 413 1002 Z M 390 1025 L 388 1028 Q 386 1032 380 1033 L 385 1034 L 390 1040 L 392 1036 L 396 1033 L 394 1031 L 390 1025 Z M 413 1027 L 413 1029 L 407 1033 L 411 1035 Q 413 1034 412 1037 L 415 1038 L 416 1036 L 420 1033 L 413 1027 Z M 365 1047 L 362 1053 L 354 1058 L 362 1061 L 365 1067 L 368 1059 L 373 1058 L 371 1056 Q 366 1053 365 1047 Z M 390 1050 L 387 1054 L 381 1058 L 386 1059 L 390 1065 L 391 1062 L 396 1058 L 390 1050 Z M 415 1051 L 410 1056 Q 407 1055 408 1058 L 413 1062 Q 412 1064 415 1063 L 416 1061 L 420 1058 L 415 1051 Z M 365 1072 L 363 1076 L 357 1081 Q 353 1080 354 1083 L 362 1086 L 365 1093 L 368 1084 L 372 1083 Q 374 1084 373 1081 L 370 1080 Q 365 1078 365 1072 Z M 388 1075 L 384 1081 Q 380 1080 381 1083 L 386 1084 L 390 1090 L 391 1087 L 395 1084 L 396 1081 L 390 1077 Q 391 1074 388 1075 Z M 413 1076 L 413 1078 L 407 1083 L 411 1084 L 414 1088 Q 416 1089 415 1087 L 419 1084 L 420 1081 L 415 1078 Q 416 1075 413 1076 Z M 390 1099 L 388 1102 L 383 1106 Q 380 1105 381 1108 L 386 1109 L 390 1115 L 395 1108 Q 397 1109 396 1107 L 394 1105 L 390 1099 Z " /><path fill="rgb(246,248,253)" stroke="rgb(246,248,253)" stroke-width="1" opacity="1" d="M 134.5 845 Q 137.5 844.1 136 848.5 L 132.5 853 L 128.5 854 L 125 851.5 L 134.5 845 Z " /><path fill="rgb(246,248,253)" stroke="rgb(246,248,253)" stroke-width="1" opacity="1" d="M 301.5 860 Q 308 860.3 311 863 L 314 869.5 L 314 873.5 L 311 880 Q 308 882.7 301.5 883 Q 295.8 881.8 293 877.5 Q 290.7 874.3 292 867.5 L 296.5 862 L 301.5 860 Z " /><path fill="rgb(246,248,253)" stroke="rgb(246,248,253)" stroke-width="1" opacity="1" d="M 323.5 860 Q 335.3 858.2 338 865.5 Q 340.3 868.7 339 875.5 L 333.5 882 Q 330.3 884.3 323.5 883 L 317 877.5 L 316 868.5 L 320.5 862 L 323.5 860 Z " /><path fill="rgb(246,248,253)" stroke="rgb(246,248,253)" stroke-width="1" opacity="1" d="M 275.5 861 L 280.5 861 L 287 865.5 L 289 871.5 L 287 877.5 L 284.5 880 Q 281.8 882.8 275.5 882 L 269 877.5 L 267 871.5 L 269 865.5 L 271.5 863 L 275.5 861 Z " /><path fill="rgb(246,248,253)" stroke="rgb(246,248,253)" stroke-width="1" opacity="1" d="M 227.5 862 Q 233.3 862.3 236 865.5 L 238 872.5 L 234.5 879 L 227.5 881 L 221 877.5 Q 218.3 875.2 219 869.5 L 222.5 864 L 227.5 862 Z " /><path fill="rgb(246,248,253)" stroke="rgb(246,248,253)" stroke-width="1" opacity="1" d="M 249.5 862 Q 259.6 860.4 262 866.5 L 263 874.5 L 258.5 880 L 249.5 881 L 245 877.5 L 243 870.5 L 247.5 863 L 249.5 862 Z " /><path fill="rgb(246,248,253)" stroke="rgb(246,248,253)" stroke-width="1" opacity="1" d="M 201.5 863 Q 208 862 210 865.5 Q 213.2 867.8 212 874.5 L 208.5 879 L 200.5 880 L 196 876.5 L 195 869.5 L 199.5 864 L 201.5 863 Z " /><path fill="rgb(246,248,253)" stroke="rgb(246,248,253)" stroke-width="1" opacity="1" d="M 175.5 864 Q 182.8 862.8 185 866.5 L 187 873.5 L 182.5 879 L 178.5 880 L 173 878 Q 170.4 875.7 171 869.5 L 175.5 864 Z " /><path fill="rgb(246,248,253)" stroke="rgb(246,248,253)" stroke-width="1" opacity="1" d="M 151.5 865 Q 159.5 863.5 161 868.5 Q 161.8 874.6 160 877 L 156.5 879 L 152.5 879 L 148 875.5 L 147 869.5 L 149.5 866 L 151.5 865 Z " /><path fill="rgb(246,248,253)" stroke="rgb(246,248,253)" stroke-width="1" opacity="1" d="M 126.5 866 Q 133.5 864.5 135 868.5 L 136 873.5 L 133.5 877 L 126.5 878 Q 121.7 876.7 123 869.5 L 126.5 866 Z " /><path fill="rgb(246,248,253)" stroke="rgb(246,248,253)" stroke-width="1" opacity="1" d="M 107.5 867 Q 111.3 868.3 110 874.5 Q 109.3 878.7 103.5 878 L 100 875.5 L 107.5 867 Z " /><path fill="rgb(246,248,253)" stroke="rgb(246,248,253)" stroke-width="1" opacity="1" d="M 326.5 884 Q 334.9 884.1 338 889.5 L 339 900.5 L 333.5 907 L 324.5 908 L 318 903.5 Q 314.8 900.2 316 892.5 L 320.5 886 L 326.5 884 Z " /><path fill="rgb(246,248,253)" stroke="rgb(246,248,253)" stroke-width="1" opacity="1" d="M 300.5 885 L 305.5 885 L 313 890.5 L 314 899.5 L 307.5 907 Q 296 909 293 902.5 L 291 896.5 L 295 887 L 300.5 885 Z " /><path fill="rgb(246,248,253)" stroke="rgb(246,248,253)" stroke-width="1" opacity="1" d="M 252.5 886 L 261 889 Q 263.7 891.6 263 898.5 L 258.5 905 L 250.5 906 L 245 902.5 L 243 894.5 L 248.5 887 L 252.5 886 Z " /><path fill="rgb(246,248,253)" stroke="rgb(246,248,253)" stroke-width="1" opacity="1" d="M 274.5 886 Q 284.6 884.4 287 890.5 L 289 896.5 L 287 902.5 L 284.5 905 Q 281.8 907.8 275.5 907 L 269 902.5 L 267 895.5 Q 268.3 889.8 272.5 887 L 274.5 886 Z " /><path fill="rgb(246,248,253)" stroke="rgb(246,248,253)" stroke-width="1" opacity="1" d="M 226.5 887 Q 233.8 886.2 236 890.5 L 238 897.5 L 233.5 904 L 224.5 905 L 221 903 Q 218.4 900.7 219 894.5 L 223.5 888 L 226.5 887 Z " /><path fill="rgb(246,248,253)" stroke="rgb(246,248,253)" stroke-width="1" opacity="1" d="M 200.5 888 Q 208.8 886.7 211 891.5 L 212 899.5 L 210 903 Q 207.7 905.6 201.5 905 L 196 900.5 L 195 894.5 L 197.5 890 L 200.5 888 Z " /><path fill="rgb(246,248,253)" stroke="rgb(246,248,253)" stroke-width="1" opacity="1" d="M 153.5 889 Q 159.1 889.5 161 893.5 Q 162.5 901.5 157.5 903 L 153.5 904 L 148 900.5 L 147 894.5 L 150.5 890 L 153.5 889 Z " /><path fill="rgb(246,248,253)" stroke="rgb(246,248,253)" stroke-width="1" opacity="1" d="M 175.5 889 Q 184.3 887.3 186 892.5 L 187 898.5 L 183.5 903 L 175.5 904 Q 169.5 902.5 171 893.5 L 175.5 889 Z " /><path fill="rgb(246,248,253)" stroke="rgb(246,248,253)" stroke-width="1" opacity="1" d="M 127.5 890 L 134 891 L 136 897.5 L 133.5 902 L 127.5 903 L 123 899.5 Q 122 893 125.5 891 L 127.5 890 Z " /><path fill="rgb(246,248,253)" stroke="rgb(246,248,253)" stroke-width="1" opacity="1" d="M 102.5 891 Q 108.3 890.2 110 893.5 Q 111.5 900.5 107.5 902 Q 100.5 903.5 99 899.5 Q 98.4 894.1 100 892 L 102.5 891 Z " /><path fill="rgb(246,248,253)" stroke="rgb(246,248,253)" stroke-width="1" opacity="1" d="M 83.5 894 Q 85.8 894.8 85 898.5 Q 83.7 902.7 79 902 L 83.5 894 Z " /><path fill="rgb(246,248,253)" stroke="rgb(246,248,253)" stroke-width="1" opacity="1" d="M 324.5 909 Q 334.2 907.8 337 913.5 Q 340.2 916.8 339 924.5 L 334.5 931 L 326.5 933 L 320.5 931 L 318 928.5 Q 314.8 925.2 316 917.5 L 320.5 911 L 324.5 909 Z " /><path fill="rgb(246,248,253)" stroke="rgb(246,248,253)" stroke-width="1" opacity="1" d="M 276.5 910 Q 283 910.3 286 913 L 289 921.5 L 286 929 L 282.5 931 L 273.5 931 L 269 927.5 L 267 919.5 L 271.5 912 L 276.5 910 Z " /><path fill="rgb(246,248,253)" stroke="rgb(246,248,253)" stroke-width="1" opacity="1" d="M 299.5 910 L 306.5 910 L 312 913 Q 314.6 916.2 314 923.5 L 309.5 930 Q 306.5 933 299.5 932 L 293 927.5 L 291 920.5 Q 291.9 913.9 296.5 911 L 299.5 910 Z " /><path fill="rgb(246,248,253)" stroke="rgb(246,248,253)" stroke-width="1" opacity="1" d="M 250.5 911 L 255.5 911 L 262 915.5 L 263 923.5 L 259.5 929 Q 256.8 931.8 250.5 931 L 244 925.5 L 243 918.5 L 246.5 913 L 250.5 911 Z " /><path fill="rgb(246,248,253)" stroke="rgb(246,248,253)" stroke-width="1" opacity="1" d="M 225.5 912 Q 234.8 910.6 237 916.5 L 238 921.5 L 237 925.5 L 233.5 929 L 224.5 930 L 219 923.5 L 219 918.5 L 221 914 L 225.5 912 Z " /><path fill="rgb(246,248,253)" stroke="rgb(246,248,253)" stroke-width="1" opacity="1" d="M 177.5 913 L 185 915 L 187 922.5 L 183.5 928 L 176.5 929 L 172 925.5 L 171 918.5 L 174.5 914 L 177.5 913 Z " /><path fill="rgb(246,248,253)" stroke="rgb(246,248,253)" stroke-width="1" opacity="1" d="M 199.5 913 Q 209 911 211 916.5 L 212 923.5 L 207.5 929 L 202.5 930 L 196 925.5 L 195 918.5 L 199.5 913 Z " /><path fill="rgb(246,248,253)" stroke="rgb(246,248,253)" stroke-width="1" opacity="1" d="M 151.5 914 L 156.5 914 L 161 918.5 Q 162.5 926.5 157.5 928 Q 148.8 929.8 147 924.5 Q 145.5 915.5 151.5 914 Z " /><path fill="rgb(246,248,253)" stroke="rgb(246,248,253)" stroke-width="1" opacity="1" d="M 126.5 915 Q 133 914 135 917.5 L 136 922.5 L 132.5 927 L 127.5 928 L 124 925.5 L 123 918.5 L 126.5 915 Z " /><path fill="rgb(246,248,253)" stroke="rgb(246,248,253)" stroke-width="1" opacity="1" d="M 78.5 916 Q 83.3 915.3 84 918.5 L 85 922.5 L 82.5 926 Q 76.3 927.3 75 923.5 Q 74 917 78.5 916 Z " /><path fill="rgb(246,248,253)" stroke="rgb(246,248,253)" stroke-width="1" opacity="1" d="M 101.5 916 Q 108.5 914.5 110 918.5 Q 110.6 923.9 109 926 L 102.5 927 Q 97.8 925.8 99 918.5 L 101.5 916 Z " /><path fill="rgb(246,248,253)" stroke="rgb(246,248,253)" stroke-width="1" opacity="1" d="M 323.5 934 Q 335.3 932.2 338 939.5 Q 340.3 942.7 339 949.5 L 336 955 Q 332.4 958.1 323.5 957 L 319 955 L 316 949.5 L 316 941.5 L 321.5 935 L 323.5 934 Z " /><path fill="rgb(246,248,253)" stroke="rgb(246,248,253)" stroke-width="1" opacity="1" d="M 275.5 935 L 280.5 935 L 287 939.5 Q 289.3 942.7 288 949.5 L 283.5 955 L 274.5 956 L 270 954 L 267 947.5 L 267 943.5 L 272.5 936 L 275.5 935 Z " /><path fill="rgb(246,248,253)" stroke="rgb(246,248,253)" stroke-width="1" opacity="1" d="M 298.5 935 Q 307.4 933.9 311 937 L 314 943.5 L 314 948.5 L 309.5 955 Q 306.8 957.8 300.5 957 Q 294.4 955.6 292 950.5 L 291 945.5 Q 291.9 938.9 296.5 936 L 298.5 935 Z " /><path fill="rgb(246,248,253)" stroke="rgb(246,248,253)" stroke-width="1" opacity="1" d="M 249.5 936 Q 259.6 934.4 262 940.5 L 263 948.5 L 257.5 955 L 251.5 956 L 244 950.5 L 243 943.5 L 247.5 937 L 249.5 936 Z " /><path fill="rgb(246,248,253)" stroke="rgb(246,248,253)" stroke-width="1" opacity="1" d="M 202.5 937 Q 208.9 937.1 211 941.5 L 212 948.5 L 208.5 953 L 200.5 954 L 196 950.5 L 195 943.5 L 197 939 L 202.5 937 Z " /><path fill="rgb(246,248,253)" stroke="rgb(246,248,253)" stroke-width="1" opacity="1" d="M 224.5 937 Q 233.5 935.5 236 940.5 L 238 946.5 L 234.5 953 Q 232.2 956.2 225.5 955 L 220 950.5 L 219 943.5 L 222.5 938 L 224.5 937 Z " /><path fill="rgb(246,248,253)" stroke="rgb(246,248,253)" stroke-width="1" opacity="1" d="M 175.5 938 Q 182.8 936.8 185 940.5 L 187 946.5 L 182.5 953 L 176.5 954 L 172 950.5 L 171 942.5 L 175.5 938 Z " /><path fill="rgb(246,248,253)" stroke="rgb(246,248,253)" stroke-width="1" opacity="1" d="M 151.5 939 Q 158 938 160 941.5 L 161 948.5 L 158.5 952 L 151.5 953 L 148 950.5 L 147 942.5 L 151.5 939 Z " /><path fill="rgb(246,248,253)" stroke="rgb(246,248,253)" stroke-width="1" opacity="1" d="M 103.5 940 Q 108.3 940.3 110 943.5 Q 111.3 949.8 107.5 951 L 102.5 952 Q 97.8 950.8 99 943.5 L 103.5 940 Z " /><path fill="rgb(246,248,253)" stroke="rgb(246,248,253)" stroke-width="1" opacity="1" d="M 126.5 940 Q 133.5 938.5 135 942.5 L 136 947.5 L 132.5 952 Q 126.4 952.7 124 951 Q 122.4 948.9 123 943.5 L 124 941 L 126.5 940 Z " /><path fill="rgb(246,248,253)" stroke="rgb(246,248,253)" stroke-width="1" opacity="1" d="M 77.5 941 Q 84 940 85 944.5 L 84 950 L 77.5 951 Q 73.8 949.8 75 943.5 L 77.5 941 Z " /><path fill="rgb(246,248,253)" stroke="rgb(246,248,253)" stroke-width="1" opacity="1" d="M 57 944 Q 60.7 942.6 59 948.5 L 56 950 L 57 944 Z " /><path fill="rgb(246,248,253)" stroke="rgb(246,248,253)" stroke-width="1" opacity="1" d="M 301.5 959 Q 308 959 311 962.5 Q 314.9 965.1 314 972.5 L 311 979 Q 308 981.7 301.5 982 L 297.5 981 L 293 976.5 L 291 970.5 L 295 961 L 301.5 959 Z " /><path fill="rgb(246,248,253)" stroke="rgb(246,248,253)" stroke-width="1" opacity="1" d="M 323.5 959 L 331.5 959 L 337 962 Q 340.1 965.6 339 974.5 L 333.5 981 Q 330.3 983.3 323.5 982 L 317 976.5 Q 314.7 973.3 316 966.5 L 318 962 L 323.5 959 Z " /><path fill="rgb(246,248,253)" stroke="rgb(246,248,253)" stroke-width="1" opacity="1" d="M 274.5 960 Q 284.6 958.4 287 964.5 Q 289.3 967.7 288 974.5 L 283.5 980 L 274.5 981 L 268 975.5 L 267 968.5 L 269 963 L 274.5 960 Z " /><path fill="rgb(246,248,253)" stroke="rgb(246,248,253)" stroke-width="1" opacity="1" d="M 227.5 961 L 236 964 L 238 970.5 L 237 974.5 L 232.5 979 L 226.5 980 L 220 975.5 L 219 967.5 L 222.5 963 L 227.5 961 Z " /><path fill="rgb(246,248,253)" stroke="rgb(246,248,253)" stroke-width="1" opacity="1" d="M 249.5 961 Q 259.6 959.4 262 965.5 L 263 972.5 L 258.5 979 L 249.5 980 L 244 975.5 L 243 967.5 L 247.5 962 L 249.5 961 Z " /><path fill="rgb(246,248,253)" stroke="rgb(246,248,253)" stroke-width="1" opacity="1" d="M 201.5 962 Q 209.4 961.1 211 966.5 L 212 972.5 L 210 977 L 206.5 979 L 200.5 979 L 196 975.5 L 195 967.5 L 197.5 964 L 201.5 962 Z " /><path fill="rgb(246,248,253)" stroke="rgb(246,248,253)" stroke-width="1" opacity="1" d="M 175.5 963 Q 183.8 961.7 186 966.5 L 187 970.5 L 186 974.5 L 183.5 977 L 175.5 978 L 172 975.5 L 171 967.5 L 175.5 963 Z " /><path fill="rgb(246,248,253)" stroke="rgb(246,248,253)" stroke-width="1" opacity="1" d="M 127.5 964 Q 133.7 963.3 135 967.5 L 136 971.5 L 134 976 Q 131.9 977.6 126.5 977 Q 121.7 975.7 123 968.5 L 125.5 965 L 127.5 964 Z " /><path fill="rgb(246,248,253)" stroke="rgb(246,248,253)" stroke-width="1" opacity="1" d="M 150.5 964 Q 157.8 962.8 160 966.5 L 161 973.5 Q 159.4 978.9 151.5 978 L 148 976 Q 146.2 973.6 147 967.5 L 150.5 964 Z " /><path fill="rgb(246,248,253)" stroke="rgb(246,248,253)" stroke-width="1" opacity="1" d="M 102.5 965 Q 109 964 110 968.5 Q 110.8 974.3 107.5 976 Q 100.5 977.5 99 973.5 Q 97.5 967.5 100.5 966 L 102.5 965 Z " /><path fill="rgb(246,248,253)" stroke="rgb(246,248,253)" stroke-width="1" opacity="1" d="M 77.5 966 L 84 967 L 85 971.5 L 82.5 975 L 78.5 976 L 75 973.5 Q 73.8 967.3 77.5 966 Z " /><path fill="rgb(246,248,253)" stroke="rgb(246,248,253)" stroke-width="1" opacity="1" d="M 52.5 967 Q 58.6 965.8 58 968.5 L 59 972.5 Q 58 976 52.5 975 Q 49.8 973.8 51 968.5 L 52.5 967 Z " /><path fill="rgb(246,248,253)" stroke="rgb(246,248,253)" stroke-width="1" opacity="1" d="M 326.5 983 Q 335.5 983 338 989.5 L 339 998.5 L 334.5 1005 Q 331.5 1008 324.5 1007 L 317 1001.5 Q 314.7 998.3 316 991.5 L 319 986 L 326.5 983 Z " /><path fill="rgb(246,248,253)" stroke="rgb(246,248,253)" stroke-width="1" opacity="1" d="M 300.5 984 Q 308.5 983 311 987.5 Q 314.7 990.3 314 997.5 L 308.5 1005 Q 305.3 1007.3 298.5 1006 L 293 1001.5 L 291 995.5 Q 292.1 988.1 297.5 985 L 300.5 984 Z " /><path fill="rgb(246,248,253)" stroke="rgb(246,248,253)" stroke-width="1" opacity="1" d="M 251.5 985 Q 259.6 984.9 262 990.5 L 263 997.5 L 258.5 1004 L 249.5 1005 L 245 1001.5 Q 242.2 998.8 243 992.5 L 245 988 L 251.5 985 Z " /><path fill="rgb(246,248,253)" stroke="rgb(246,248,253)" stroke-width="1" opacity="1" d="M 273.5 985 Q 284.3 983.2 287 989.5 L 288 998.5 L 282.5 1005 L 276.5 1006 L 269 1001.5 Q 266.3 999.2 267 993.5 L 270 987 L 273.5 985 Z " /><path fill="rgb(246,248,253)" stroke="rgb(246,248,253)" stroke-width="1" opacity="1" d="M 226.5 986 Q 233.8 985.2 236 989.5 L 237 998.5 L 232.5 1004 Q 222.8 1005.8 220 1000.5 L 219 992.5 L 223.5 987 L 226.5 986 Z " /><path fill="rgb(246,248,253)" stroke="rgb(246,248,253)" stroke-width="1" opacity="1" d="M 200.5 987 Q 208.8 985.7 211 990.5 L 212 997.5 L 207.5 1003 L 201.5 1004 L 197 1002 L 195 998.5 L 195 992.5 L 198.5 988 L 200.5 987 Z " /><path fill="rgb(246,248,253)" stroke="rgb(246,248,253)" stroke-width="1" opacity="1" d="M 153.5 988 Q 158.3 988.3 160 991.5 L 161 997.5 L 157.5 1002 L 153.5 1003 L 147 998.5 Q 145.5 990.5 150.5 989 L 153.5 988 Z " /><path fill="rgb(246,248,253)" stroke="rgb(246,248,253)" stroke-width="1" opacity="1" d="M 175.5 988 Q 182.8 986.8 185 990.5 L 186 998.5 Q 184.4 1003.9 176.5 1003 L 171 998.5 Q 169.8 991.3 173.5 989 L 175.5 988 Z " /><path fill="rgb(246,248,253)" stroke="rgb(246,248,253)" stroke-width="1" opacity="1" d="M 127.5 989 Q 133.7 988.3 135 992.5 L 136 995.5 L 132.5 1001 L 127.5 1002 L 123 998.5 Q 121.5 991.5 125.5 990 L 127.5 989 Z " /><path fill="rgb(246,248,253)" stroke="rgb(246,248,253)" stroke-width="1" opacity="1" d="M 102.5 990 L 109 991 L 110 997.5 L 109 1000 Q 106.9 1001.6 101.5 1001 Q 97.5 999.5 99 992.5 L 102.5 990 Z " /><path fill="rgb(246,248,253)" stroke="rgb(246,248,253)" stroke-width="1" opacity="1" d="M 54.5 991 L 59 993.5 Q 60 999 56.5 1000 Q 51.8 1000.8 51 997.5 Q 50 993 52.5 992 L 54.5 991 Z " /><path fill="rgb(246,248,253)" stroke="rgb(246,248,253)" stroke-width="1" opacity="1" d="M 76.5 991 Q 82.5 989.5 84 992.5 L 85 996.5 L 82.5 1000 L 79.5 1001 L 75 998.5 L 74 995.5 L 76.5 991 Z " /><path fill="rgb(246,248,253)" stroke="rgb(246,248,253)" stroke-width="1" opacity="1" d="M 326.5 1008 Q 334 1008 337 1012.5 Q 340.2 1015.8 339 1023.5 L 335.5 1029 Q 332.5 1032 326.5 1032 L 320.5 1030 L 318 1027.5 Q 314.8 1024.2 316 1016.5 L 320.5 1010 L 326.5 1008 Z " /><path fill="rgb(246,248,253)" stroke="rgb(246,248,253)" stroke-width="1" opacity="1" d="M 298.5 1009 Q 309.3 1007.2 312 1013.5 L 314 1021.5 L 309.5 1029 Q 306.5 1032 299.5 1031 L 293 1026.5 L 291 1019.5 Q 291.9 1012.9 296.5 1010 L 298.5 1009 Z " /><path fill="rgb(246,248,253)" stroke="rgb(246,248,253)" stroke-width="1" opacity="1" d="M 251.5 1010 Q 259.6 1009.9 262 1015.5 L 263 1022.5 L 257.5 1029 L 250.5 1030 L 245 1026.5 Q 242.2 1023.8 243 1017.5 L 245 1013 L 251.5 1010 Z " /><path fill="rgb(246,248,253)" stroke="rgb(246,248,253)" stroke-width="1" opacity="1" d="M 273.5 1010 Q 284.3 1008.2 287 1014.5 L 288 1023.5 L 283.5 1029 Q 280.3 1031.3 273.5 1030 L 269 1026.5 L 267 1018.5 L 270.5 1012 L 273.5 1010 Z " /><path fill="rgb(246,248,253)" stroke="rgb(246,248,253)" stroke-width="1" opacity="1" d="M 225.5 1011 Q 233.5 1010 236 1014.5 L 237 1023.5 L 233.5 1028 L 224.5 1029 L 221 1027 Q 218.3 1024.4 219 1017.5 L 221 1013 L 225.5 1011 Z " /><path fill="rgb(246,248,253)" stroke="rgb(246,248,253)" stroke-width="1" opacity="1" d="M 177.5 1012 Q 183.9 1012.1 186 1016.5 Q 187.8 1025.3 182.5 1027 L 176.5 1028 L 171 1023.5 Q 169.7 1015.2 174.5 1013 L 177.5 1012 Z " /><path fill="rgb(246,248,253)" stroke="rgb(246,248,253)" stroke-width="1" opacity="1" d="M 200.5 1012 Q 208.8 1010.7 211 1015.5 L 212 1021.5 L 207.5 1028 L 202.5 1029 L 195 1023.5 Q 194.1 1016.7 196 1014 L 200.5 1012 Z " /><path fill="rgb(246,248,253)" stroke="rgb(246,248,253)" stroke-width="1" opacity="1" d="M 151.5 1013 Q 158.4 1012.1 160 1016.5 L 161 1021.5 L 158.5 1026 L 150.5 1027 Q 145.3 1025.3 147 1016.5 L 151.5 1013 Z " /><path fill="rgb(246,248,253)" stroke="rgb(246,248,253)" stroke-width="1" opacity="1" d="M 126.5 1014 Q 133.8 1012.8 135 1017.5 Q 136.5 1024.5 132.5 1026 L 127.5 1027 L 123 1023.5 L 122 1020.5 L 126.5 1014 Z " /><path fill="rgb(246,248,253)" stroke="rgb(246,248,253)" stroke-width="1" opacity="1" d="M 78.5 1015 L 84 1017.5 Q 85.3 1023.8 81.5 1025 Q 76 1026 75 1022.5 Q 73.8 1017.3 76.5 1016 L 78.5 1015 Z " /><path fill="rgb(246,248,253)" stroke="rgb(246,248,253)" stroke-width="1" opacity="1" d="M 101.5 1015 Q 106.9 1014.4 109 1016 L 110 1021.5 L 107.5 1025 L 102.5 1026 L 99 1023.5 L 98 1020.5 L 101.5 1015 Z " /><path fill="rgb(246,248,253)" stroke="rgb(246,248,253)" stroke-width="1" opacity="1" d="M 53.5 1016 L 59 1018.5 Q 60 1023 57.5 1024 L 54.5 1025 L 51 1022.5 Q 50 1017 53.5 1016 Z " /><path fill="rgb(246,248,253)" stroke="rgb(246,248,253)" stroke-width="1" opacity="1" d="M 324.5 1033 Q 333.5 1032.5 337 1037.5 Q 340 1040.5 339 1047.5 L 333.5 1055 Q 330.3 1057.3 323.5 1056 L 317 1050.5 L 316 1041.5 L 320.5 1035 L 324.5 1033 Z " /><path fill="rgb(246,248,253)" stroke="rgb(246,248,253)" stroke-width="1" opacity="1" d="M 276.5 1034 Q 284.6 1033.9 287 1039.5 L 288 1047.5 L 283.5 1054 L 274.5 1055 L 268 1049.5 L 267 1043.5 L 271.5 1036 L 276.5 1034 Z " /><path fill="rgb(246,248,253)" stroke="rgb(246,248,253)" stroke-width="1" opacity="1" d="M 298.5 1034 Q 309.3 1032.2 312 1038.5 L 314 1045.5 L 311 1053 Q 308 1055.7 301.5 1056 L 297.5 1055 L 293 1050.5 L 291 1044.5 Q 291.9 1037.9 296.5 1035 L 298.5 1034 Z " /><path fill="rgb(246,248,253)" stroke="rgb(246,248,253)" stroke-width="1" opacity="1" d="M 250.5 1035 Q 258.5 1034 261 1038.5 L 263 1045.5 L 262 1049.5 L 258.5 1053 L 249.5 1054 L 244 1049.5 L 243 1042.5 L 246.5 1037 L 250.5 1035 Z " /><path fill="rgb(246,248,253)" stroke="rgb(246,248,253)" stroke-width="1" opacity="1" d="M 202.5 1036 Q 208.9 1036.1 211 1040.5 L 212 1046.5 L 208.5 1052 L 200.5 1053 L 196 1049.5 L 195 1041.5 L 197.5 1038 L 202.5 1036 Z " /><path fill="rgb(246,248,253)" stroke="rgb(246,248,253)" stroke-width="1" opacity="1" d="M 225.5 1036 Q 233.5 1035 236 1039.5 L 237 1047.5 L 232.5 1053 L 225.5 1054 L 220 1049.5 L 219 1042.5 L 221 1038 L 225.5 1036 Z " /><path fill="rgb(246,248,253)" stroke="rgb(246,248,253)" stroke-width="1" opacity="1" d="M 176.5 1037 Q 184.4 1036.1 186 1041.5 Q 187.3 1049.8 182.5 1052 L 176.5 1053 L 172 1049.5 L 171 1041.5 L 176.5 1037 Z " /><path fill="rgb(246,248,253)" stroke="rgb(246,248,253)" stroke-width="1" opacity="1" d="M 151.5 1038 Q 158.8 1036.8 160 1041.5 L 161 1046.5 L 157.5 1051 L 151.5 1052 L 148 1049.5 L 147 1041.5 L 151.5 1038 Z " /><path fill="rgb(246,248,253)" stroke="rgb(246,248,253)" stroke-width="1" opacity="1" d="M 102.5 1039 Q 107.6 1038.4 109 1041.5 L 110 1046.5 L 107.5 1050 L 103.5 1051 L 99 1047.5 Q 97.8 1040.3 102.5 1039 Z " /><path fill="rgb(246,248,253)" stroke="rgb(246,248,253)" stroke-width="1" opacity="1" d="M 126.5 1039 Q 131.9 1038.4 134 1040 Q 135.6 1042.1 135 1047.5 L 134 1050 Q 131.9 1051.6 126.5 1051 L 124 1050 Q 122.4 1047.9 123 1042.5 L 124 1040 L 126.5 1039 Z " /><path fill="rgb(246,248,253)" stroke="rgb(246,248,253)" stroke-width="1" opacity="1" d="M 78.5 1040 L 84 1042.5 Q 85.3 1048.8 81.5 1050 Q 76 1051 75 1047.5 Q 73.8 1042.3 76.5 1041 L 78.5 1040 Z " /><path fill="rgb(246,248,253)" stroke="rgb(246,248,253)" stroke-width="1" opacity="1" d="M 53.5 1041 Q 58.3 1040.3 59 1043.5 Q 59.8 1048.3 56.5 1049 Q 52 1050 51 1047.5 Q 49.8 1041.4 52.5 1042 L 53.5 1041 Z " /><path fill="rgb(246,248,253)" stroke="rgb(246,248,253)" stroke-width="1" opacity="1" d="M 324.5 1058 Q 334.2 1056.8 337 1062.5 Q 340 1065.5 339 1072.5 L 333.5 1080 Q 330.3 1082.3 323.5 1081 L 317 1075.5 L 316 1066.5 L 319 1060 L 324.5 1058 Z " /><path fill="rgb(246,248,253)" stroke="rgb(246,248,253)" stroke-width="1" opacity="1" d="M 276.5 1059 Q 284 1059.5 287 1064.5 L 288 1072.5 L 282.5 1079 L 275.5 1080 L 269 1075.5 L 267 1068.5 L 271.5 1061 L 276.5 1059 Z " /><path fill="rgb(246,248,253)" stroke="rgb(246,248,253)" stroke-width="1" opacity="1" d="M 298.5 1059 Q 309.3 1057.2 312 1063.5 L 314 1069.5 Q 313.1 1076.1 308.5 1079 Q 305.3 1081.3 298.5 1080 L 293 1075.5 L 291 1069.5 Q 291.9 1062.9 296.5 1060 L 298.5 1059 Z " /><path fill="rgb(246,248,253)" stroke="rgb(246,248,253)" stroke-width="1" opacity="1" d="M 250.5 1060 L 255.5 1060 L 261 1063 L 263 1069.5 L 261 1075.5 L 258.5 1078 L 249.5 1079 L 244 1074.5 L 243 1067.5 L 246.5 1062 L 250.5 1060 Z " /><path fill="rgb(246,248,253)" stroke="rgb(246,248,253)" stroke-width="1" opacity="1" d="M 202.5 1061 Q 208.9 1061.1 211 1065.5 L 212 1070.5 L 207.5 1077 L 200.5 1078 L 196 1074.5 L 195 1066.5 L 197 1063 L 202.5 1061 Z " /><path fill="rgb(246,248,253)" stroke="rgb(246,248,253)" stroke-width="1" opacity="1" d="M 224.5 1061 Q 233.5 1059.5 236 1064.5 L 237 1072.5 L 233.5 1077 L 227.5 1079 L 220 1074.5 L 219 1067.5 L 222.5 1062 L 224.5 1061 Z " /><path fill="rgb(246,248,253)" stroke="rgb(246,248,253)" stroke-width="1" opacity="1" d="M 176.5 1062 Q 183.4 1061.1 185 1065.5 L 186 1072.5 Q 184.5 1078.5 175.5 1077 L 172 1074.5 L 171 1066.5 L 176.5 1062 Z " /><path fill="rgb(246,248,253)" stroke="rgb(246,248,253)" stroke-width="1" opacity="1" d="M 151.5 1063 Q 158.8 1061.8 160 1066.5 L 161 1070.5 L 158.5 1075 L 152.5 1077 L 147 1072.5 Q 145.5 1065.5 149.5 1064 L 151.5 1063 Z " /><path fill="rgb(246,248,253)" stroke="rgb(246,248,253)" stroke-width="1" opacity="1" d="M 102.5 1064 Q 107.6 1063.4 109 1066.5 L 110 1070.5 L 106.5 1075 Q 100.3 1076.3 99 1072.5 Q 97.8 1065.3 102.5 1064 Z " /><path fill="rgb(246,248,253)" stroke="rgb(246,248,253)" stroke-width="1" opacity="1" d="M 126.5 1064 Q 133.8 1062.8 135 1067.5 Q 136.3 1074.8 131.5 1076 Q 124.3 1077.3 123 1072.5 Q 122.4 1067.1 124 1065 L 126.5 1064 Z " /><path fill="rgb(246,248,253)" stroke="rgb(246,248,253)" stroke-width="1" opacity="1" d="M 77.5 1065 Q 83 1064 84 1067.5 Q 85.3 1072.8 82.5 1074 L 78.5 1075 L 75 1072.5 Q 73.8 1066.3 77.5 1065 Z " /><path fill="rgb(246,248,253)" stroke="rgb(246,248,253)" stroke-width="1" opacity="1" d="M 55.5 1066 L 58 1067.5 L 59 1072 Q 56.3 1073.1 57 1070.5 L 55.5 1066 Z " /><path fill="rgb(246,248,253)" stroke="rgb(246,248,253)" stroke-width="1" opacity="1" d="M 324.5 1083 Q 334.2 1081.8 337 1087.5 Q 339.6 1090.4 339 1096.5 L 335.5 1103 Q 332.6 1107.1 324.5 1106 L 317 1100.5 L 316 1091.5 L 320.5 1085 L 324.5 1083 Z " /><path fill="rgb(246,248,253)" stroke="rgb(246,248,253)" stroke-width="1" opacity="1" d="M 276.5 1084 L 286 1087 L 288 1092.5 L 288 1096.5 L 283.5 1103 L 276.5 1105 L 269 1100.5 L 267 1093.5 L 271.5 1086 L 276.5 1084 Z " /><path fill="rgb(246,248,253)" stroke="rgb(246,248,253)" stroke-width="1" opacity="1" d="M 298.5 1084 Q 309.3 1082.2 312 1088.5 Q 314.3 1091.7 313 1098.5 L 308.5 1104 Q 305.3 1106.3 298.5 1105 L 293 1100.5 Q 290.7 1097.3 292 1090.5 L 296.5 1085 L 298.5 1084 Z " /><path fill="rgb(246,248,253)" stroke="rgb(246,248,253)" stroke-width="1" opacity="1" d="M 249.5 1085 Q 259.9 1083.6 262 1090.5 Q 264 1101 257.5 1103 L 250.5 1104 L 245 1100.5 Q 242.3 1098.2 243 1092.5 L 247.5 1086 L 249.5 1085 Z " /><path fill="rgb(246,248,253)" stroke="rgb(246,248,253)" stroke-width="1" opacity="1" d="M 202.5 1086 Q 208.9 1086.1 211 1090.5 L 212 1094.5 L 207.5 1102 L 201.5 1103 L 197 1101 L 195 1097.5 L 195 1091.5 L 197 1088 L 202.5 1086 Z " /><path fill="rgb(246,248,253)" stroke="rgb(246,248,253)" stroke-width="1" opacity="1" d="M 224.5 1086 Q 233.5 1084.5 236 1089.5 L 237 1096.5 L 233.5 1102 L 224.5 1103 L 221 1100.5 Q 218.3 1098.2 219 1092.5 L 222.5 1087 L 224.5 1086 Z " /><path fill="rgb(246,248,253)" stroke="rgb(246,248,253)" stroke-width="1" opacity="1" d="M 176.5 1087 Q 183.4 1086.1 185 1090.5 L 186 1096.5 L 182.5 1101 L 176.5 1102 L 171 1097.5 Q 169.5 1089.5 174.5 1088 L 176.5 1087 Z " /><path fill="rgb(246,248,253)" stroke="rgb(246,248,253)" stroke-width="1" opacity="1" d="M 127.5 1088 Q 132.6 1087.4 134 1090.5 L 135 1096.5 L 132.5 1100 L 128.5 1101 L 123 1097.5 Q 121.5 1090.5 125.5 1089 L 127.5 1088 Z " /><path fill="rgb(246,248,253)" stroke="rgb(246,248,253)" stroke-width="1" opacity="1" d="M 150.5 1088 Q 158.5 1086.5 160 1091.5 L 161 1094.5 L 156.5 1101 Q 148.5 1102.5 147 1097.5 Q 145.5 1089.5 150.5 1088 Z " /><path fill="rgb(246,248,253)" stroke="rgb(246,248,253)" stroke-width="1" opacity="1" d="M 102.5 1089 Q 107.6 1088.4 109 1091.5 L 110 1094.5 L 107.5 1099 L 102.5 1100 L 99 1097.5 Q 97.8 1090.3 102.5 1089 Z " /><path fill="rgb(246,248,253)" stroke="rgb(246,248,253)" stroke-width="1" opacity="1" d="M 77.5 1090 Q 83 1089 84 1092.5 Q 85 1098 81.5 1099 Q 75.4 1100.3 76 1097.5 L 75 1092.5 L 77.5 1090 Z " /><path fill="rgb(246,248,253)" stroke="rgb(246,248,253)" stroke-width="1" opacity="1" d="M 323.5 1108 Q 332.9 1106.6 336 1111.5 Q 339 1114.5 339 1120.5 Q 337.8 1126.3 333.5 1129 L 326.5 1131 L 319 1128 L 316 1122.5 L 316 1116.5 L 321.5 1109 L 323.5 1108 Z " /><path fill="rgb(246,248,253)" stroke="rgb(246,248,253)" stroke-width="1" opacity="1" d="M 275.5 1109 L 280.5 1109 L 286 1112 L 288 1120.5 L 283.5 1128 Q 280.3 1130.3 273.5 1129 L 268 1123.5 L 267 1119.5 L 269 1112 L 275.5 1109 Z " /><path fill="rgb(246,248,253)" stroke="rgb(246,248,253)" stroke-width="1" opacity="1" d="M 298.5 1109 Q 309.3 1107.2 312 1113.5 L 313 1122.5 L 307.5 1129 L 299.5 1130 L 293 1124.5 L 292 1115.5 L 296.5 1110 L 298.5 1109 Z " /><path fill="rgb(246,248,253)" stroke="rgb(246,248,253)" stroke-width="1" opacity="1" d="M 249.5 1110 Q 257.1 1109.1 260 1112 L 262 1115.5 L 262 1122.5 L 258.5 1127 L 251.5 1129 L 244 1123.5 L 243 1118.5 L 244 1114.5 L 247.5 1111 L 249.5 1110 Z " /><path fill="rgb(246,248,253)" stroke="rgb(246,248,253)" stroke-width="1" opacity="1" d="M 200.5 1111 Q 208.1 1109.9 210 1114.5 L 211 1122.5 Q 209.5 1128.5 200.5 1127 L 196 1123.5 L 195 1116.5 L 198.5 1112 L 200.5 1111 Z " /><path fill="rgb(246,248,253)" stroke="rgb(246,248,253)" stroke-width="1" opacity="1" d="M 224.5 1111 L 231.5 1111 L 235 1113 Q 237.6 1115.3 237 1121.5 L 232.5 1127 L 225.5 1128 L 220 1123.5 L 219 1117.5 L 222.5 1112 L 224.5 1111 Z " /><path fill="rgb(246,248,253)" stroke="rgb(246,248,253)" stroke-width="1" opacity="1" d="M 175.5 1112 Q 183.5 1110.5 185 1115.5 L 186 1120.5 L 183.5 1125 L 176.5 1127 L 172 1123.5 L 171 1116.5 L 175.5 1112 Z " /><path fill="rgb(246,248,253)" stroke="rgb(246,248,253)" stroke-width="1" opacity="1" d="M 127.5 1113 L 130.5 1113 L 134 1115 L 135 1121.5 L 134 1124 Q 131.6 1125.8 125.5 1125 Q 121.5 1123.5 123 1116.5 L 127.5 1113 Z " /><path fill="rgb(246,248,253)" stroke="rgb(246,248,253)" stroke-width="1" opacity="1" d="M 150.5 1113 Q 158.5 1111.5 160 1116.5 Q 161.5 1123.5 157.5 1125 L 151.5 1126 L 148 1123.5 L 147 1116.5 L 150.5 1113 Z " /><path fill="rgb(246,248,253)" stroke="rgb(246,248,253)" stroke-width="1" opacity="1" d="M 102.5 1114 Q 107.6 1113.4 109 1116.5 Q 110.5 1122.5 107.5 1124 L 102.5 1125 L 100 1124 L 99 1117.5 L 100 1115 L 102.5 1114 Z " /><path fill="rgb(246,248,253)" stroke="rgb(246,248,253)" stroke-width="1" opacity="1" d="M 78.5 1115 Q 83.3 1114.3 84 1117.5 L 83.5 1122 L 78.5 1115 Z " /><path fill="rgb(246,248,253)" stroke="rgb(246,248,253)" stroke-width="1" opacity="1" d="M 350.5 1132 Q 359.6 1132.4 363 1138.5 L 364 1146.5 Q 362.6 1152.6 357.5 1155 L 350.5 1156 Q 344.8 1154.8 342 1150.5 L 340 1143.5 Q 340.9 1136.9 345.5 1134 L 350.5 1132 Z " /><path fill="rgb(246,248,253)" stroke="rgb(246,248,253)" stroke-width="1" opacity="1" d="M 323.5 1133 Q 333.9 1131.6 337 1137.5 L 339 1144.5 Q 338.1 1151.1 333.5 1154 L 323.5 1155 L 317 1149.5 L 316 1141.5 L 321.5 1134 L 323.5 1133 Z " /><path fill="rgb(246,248,253)" stroke="rgb(246,248,253)" stroke-width="1" opacity="1" d="M 275.5 1134 Q 284.4 1133.6 287 1139.5 L 288 1144.5 L 287 1148.5 L 282.5 1153 L 275.5 1154 L 269 1149.5 L 268 1140.5 L 272.5 1135 L 275.5 1134 Z " /><path fill="rgb(246,248,253)" stroke="rgb(246,248,253)" stroke-width="1" opacity="1" d="M 298.5 1134 Q 309.3 1132.2 312 1138.5 L 313 1146.5 L 308.5 1153 L 301.5 1155 Q 295.8 1153.8 293 1149.5 L 292 1141.5 L 296.5 1135 L 298.5 1134 Z " /><path fill="rgb(246,248,253)" stroke="rgb(246,248,253)" stroke-width="1" opacity="1" d="M 249.5 1135 Q 257.1 1134.1 260 1137 L 262 1140.5 L 262 1147.5 L 259.5 1151 Q 256.9 1154.4 249.5 1153 L 245 1149.5 L 243 1143.5 L 247.5 1136 L 249.5 1135 Z " /><path fill="rgb(246,248,253)" stroke="rgb(246,248,253)" stroke-width="1" opacity="1" d="M 200.5 1136 Q 208.1 1134.9 210 1139.5 L 211 1147.5 Q 209.5 1153.5 200.5 1152 L 196 1148.5 L 195 1142.5 L 198.5 1137 L 200.5 1136 Z " /><path fill="rgb(246,248,253)" stroke="rgb(246,248,253)" stroke-width="1" opacity="1" d="M 224.5 1136 L 231.5 1136 L 236 1139.5 L 237 1144.5 L 233.5 1151 L 227.5 1153 L 221 1149.5 L 219 1142.5 L 221.5 1138 L 224.5 1136 Z " /><path fill="rgb(246,248,253)" stroke="rgb(246,248,253)" stroke-width="1" opacity="1" d="M 175.5 1137 Q 183.5 1135.5 185 1140.5 L 186 1145.5 L 181.5 1151 Q 174.3 1152.3 172 1148.5 L 171 1141.5 L 172 1139 L 175.5 1137 Z " /><path fill="rgb(246,248,253)" stroke="rgb(246,248,253)" stroke-width="1" opacity="1" d="M 127.5 1138 L 130.5 1138 L 135 1142.5 Q 135.7 1148.7 131.5 1150 Q 124.3 1151.3 123 1146.5 Q 121.8 1140.3 125.5 1139 L 127.5 1138 Z " /><path fill="rgb(246,248,253)" stroke="rgb(246,248,253)" stroke-width="1" opacity="1" d="M 150.5 1138 Q 158.5 1136.5 160 1141.5 Q 161 1148 157.5 1150 L 151.5 1151 L 148 1149 Q 146.4 1146.9 147 1141.5 L 150.5 1138 Z " /><path fill="rgb(246,248,253)" stroke="rgb(246,248,253)" stroke-width="1" opacity="1" d="M 102.5 1139 L 108 1140 L 109 1146.5 L 106.5 1149 L 100 1142.5 Q 98.9 1139.2 101.5 1140 L 102.5 1139 Z " /><path fill="rgb(246,248,253)" stroke="rgb(246,248,253)" stroke-width="1" opacity="1" d="M 350.5 1157 Q 358.9 1157.1 362 1162.5 L 360.5 1165 L 344.5 1176 L 342 1176 Q 339.9 1172.7 341 1164.5 L 345.5 1159 L 350.5 1157 Z " /><path fill="rgb(246,248,253)" stroke="rgb(246,248,253)" stroke-width="1" opacity="1" d="M 323.5 1158 Q 332.9 1156.6 336 1161.5 Q 339.2 1164.8 338 1172.5 L 332.5 1179 L 324.5 1180 L 318 1175.5 L 316 1167.5 Q 317.3 1161.8 321.5 1159 L 323.5 1158 Z " /><path fill="rgb(246,248,253)" stroke="rgb(246,248,253)" stroke-width="1" opacity="1" d="M 275.5 1159 Q 283.6 1158.4 286 1163.5 L 287 1172.5 L 283.5 1177 L 276.5 1179 L 269 1174.5 L 268 1165.5 L 272.5 1160 L 275.5 1159 Z " /><path fill="rgb(246,248,253)" stroke="rgb(246,248,253)" stroke-width="1" opacity="1" d="M 298.5 1159 Q 308.3 1157.3 311 1162.5 Q 313.8 1165.2 313 1171.5 L 308.5 1178 Q 305.3 1180.3 298.5 1179 L 294 1175.5 Q 291.2 1172.8 292 1166.5 L 296.5 1160 L 298.5 1159 Z " /><path fill="rgb(246,248,253)" stroke="rgb(246,248,253)" stroke-width="1" opacity="1" d="M 249.5 1160 Q 257.1 1159.1 260 1162 Q 262.7 1164.6 262 1171.5 L 257.5 1177 L 249.5 1178 L 245 1174.5 L 244 1165.5 L 247.5 1161 L 249.5 1160 Z " /><path fill="rgb(246,248,253)" stroke="rgb(246,248,253)" stroke-width="1" opacity="1" d="M 200.5 1161 Q 208.1 1159.9 210 1164.5 L 211 1171.5 L 208.5 1175 L 201.5 1177 L 197 1175 L 195 1167.5 L 198.5 1162 L 200.5 1161 Z " /><path fill="rgb(246,248,253)" stroke="rgb(246,248,253)" stroke-width="1" opacity="1" d="M 224.5 1161 Q 232.5 1159.5 235 1163.5 L 236 1172.5 L 233.5 1176 L 224.5 1177 L 221 1174.5 L 219 1168.5 L 222.5 1162 L 224.5 1161 Z " /><path fill="rgb(246,248,253)" stroke="rgb(246,248,253)" stroke-width="1" opacity="1" d="M 175.5 1162 Q 183.5 1160.5 185 1165.5 L 186 1169.5 L 182.5 1175 L 175.5 1176 Q 171.1 1173.9 171 1167.5 L 175.5 1162 Z " /><path fill="rgb(246,248,253)" stroke="rgb(246,248,253)" stroke-width="1" opacity="1" d="M 127.5 1163 Q 132.3 1163.3 134 1166.5 L 133.5 1171 L 125 1166 Q 123.9 1163.3 126.5 1164 L 127.5 1163 Z " /><path fill="rgb(246,248,253)" stroke="rgb(246,248,253)" stroke-width="1" opacity="1" d="M 150.5 1163 Q 158.5 1161.5 160 1166.5 Q 161.3 1173.8 156.5 1175 Q 149.5 1176.5 148 1172.5 L 147 1167.5 L 150.5 1163 Z " /><path fill="rgb(246,248,253)" stroke="rgb(246,248,253)" stroke-width="1" opacity="1" d="M 324.5 1183 L 330 1183.5 L 318.5 1189 L 318 1187.5 L 324.5 1183 Z " /><path fill="rgb(246,248,253)" stroke="rgb(246,248,253)" stroke-width="1" opacity="1" d="M 276.5 1184 Q 283.1 1184.4 286 1188.5 L 287 1196.5 L 284.5 1200 L 272.5 1202 Q 266.9 1200.1 268 1191.5 L 271.5 1186 L 276.5 1184 Z " /><path fill="rgb(246,248,253)" stroke="rgb(246,248,253)" stroke-width="1" opacity="1" d="M 298.5 1184 L 306.5 1184 L 310 1186 L 312 1192 L 300.5 1196 L 293.5 1197 Q 291 1196 292 1191.5 L 296.5 1185 L 298.5 1184 Z " /><path fill="rgb(246,248,253)" stroke="rgb(246,248,253)" stroke-width="1" opacity="1" d="M 249.5 1185 Q 258.9 1183.7 261 1189.5 L 262 1195.5 L 258.5 1201 L 251.5 1203 L 245 1198.5 L 244 1190.5 L 247.5 1186 L 249.5 1185 Z " /><path fill="rgb(246,248,253)" stroke="rgb(246,248,253)" stroke-width="1" opacity="1" d="M 200.5 1186 Q 208.1 1184.9 210 1189.5 L 211 1195.5 L 206.5 1201 Q 199.8 1200.8 196 1197.5 L 195 1193.5 L 200.5 1186 Z " /><path fill="rgb(246,248,253)" stroke="rgb(246,248,253)" stroke-width="1" opacity="1" d="M 224.5 1186 Q 234.3 1184.3 236 1190.5 Q 237.3 1198.8 232.5 1201 L 225.5 1202 L 220 1197.5 L 220 1190.5 L 222 1187 L 224.5 1186 Z " /><path fill="rgb(246,248,253)" stroke="rgb(246,248,253)" stroke-width="1" opacity="1" d="M 175.5 1187 Q 182 1186 184 1189.5 L 185 1195.5 L 183.5 1195 L 172 1190.5 L 175.5 1187 Z " /><path fill="rgb(0,0,0)" stroke="rgb(0,0,0)" stroke-width="1" opacity="0" d="M 0 0 L 2000 0 L 2000 2000 L 0 2000 L 0 0 Z M 1506 696 L 1506 1178 L 1507 1178 L 1553 1178 L 1553 697 L 1553 696 L 1506 696 Z M 229 813 L 225 814 L 220 819 L 219 823 L 221 828 L 226 831 L 234 830 L 238 824 L 236 817 L 229 813 Z M 250 813 L 248 814 Q 242 817 244 827 L 252 832 L 259 831 L 263 825 Q 264 818 261 815 Q 258 812 250 813 Z M 271 815 L 268 819 L 269 828 L 277 833 Q 283 833 286 830 L 289 823 L 288 818 L 276 815 L 271 815 Z M 205 816 L 196 818 L 195 822 L 196 827 L 202 831 Q 208 832 210 829 L 212 826 L 211 818 Q 210 815 205 816 Z M 293 819 L 292 826 L 295 831 L 300 833 L 309 832 L 313 827 L 310 824 L 293 819 Z M 185 821 L 172 827 L 177 830 L 184 829 L 187 825 Q 189 820 185 821 Z M 318 828 L 318 830 L 326 834 L 330 834 L 318 828 Z M 632 833 L 631 834 L 614 835 L 599 838 L 574 846 Q 547 857 528 874 Q 500 897 484 933 L 474 963 L 471 980 L 471 987 L 470 988 L 470 1006 L 469 1007 L 470 1008 L 470 1027 L 471 1028 L 472 1042 L 480 1072 Q 492 1105 515 1129 Q 536 1151 566 1165 L 594 1175 L 612 1179 L 628 1180 L 629 1181 L 660 1181 L 661 1180 L 678 1179 L 697 1175 L 715 1169 L 735 1159 L 751 1148 L 762 1137 L 763 1137 L 780 1114 L 747 1090 L 745 1090 L 737 1101 Q 723 1117 704 1127 L 686 1134 L 662 1139 L 631 1139 L 606 1134 Q 579 1126 561 1110 Q 540 1092 528 1066 L 521 1045 L 518 1028 L 518 1019 L 517 1018 L 518 987 L 523 963 Q 531 936 547 918 Q 564 897 591 885 L 620 876 L 636 875 L 637 874 L 664 875 L 671 877 L 676 877 L 692 882 Q 713 890 729 905 L 746 925 L 780 902 L 779 899 L 769 885 Q 747 858 712 844 L 689 837 L 672 835 L 671 834 L 632 833 Z M 942 833 L 941 834 L 918 836 L 887 845 Q 858 856 838 874 Q 812 896 796 929 L 786 956 L 780 990 L 780 1025 L 781 1026 L 782 1041 L 788 1066 Q 802 1105 828 1132 Q 850 1154 881 1167 L 908 1176 L 929 1180 L 938 1180 L 939 1181 L 970 1181 L 971 1180 L 989 1179 L 1007 1175 Q 1043 1165 1067 1143 L 1080 1129 L 1090 1115 L 1090 1112 L 1059 1091 L 1054 1090 L 1048 1100 Q 1035 1116 1016 1126 L 996 1134 L 972 1139 L 941 1139 L 940 1138 L 923 1136 L 910 1132 L 890 1123 L 870 1109 Q 850 1092 839 1068 L 831 1044 L 828 1027 L 828 1013 L 827 1012 L 828 988 L 832 967 Q 840 937 858 917 Q 874 897 899 886 L 930 876 L 946 875 L 947 874 L 974 875 L 993 879 L 1021 891 L 1036 902 L 1056 925 L 1090 902 L 1079 885 Q 1057 858 1022 844 L 999 837 L 982 835 L 981 834 L 942 833 Z M 1752 833 L 1751 834 L 1742 834 L 1741 835 L 1728 836 L 1697 845 Q 1669 856 1649 874 Q 1620 898 1604 936 L 1596 960 L 1592 982 L 1592 990 L 1591 991 L 1591 1023 L 1592 1024 L 1592 1033 L 1593 1034 L 1594 1046 L 1598 1062 Q 1609 1098 1632 1124 Q 1654 1150 1688 1165 L 1719 1176 L 1741 1180 L 1751 1180 L 1752 1181 L 1791 1180 L 1823 1173 Q 1856 1162 1881 1141 Q 1908 1118 1924 1083 L 1934 1054 L 1938 1032 L 1938 1022 L 1939 1021 L 1938 983 L 1931 950 Q 1920 916 1899 892 Q 1873 861 1834 845 L 1816 839 L 1797 835 L 1780 834 L 1779 833 L 1752 833 Z M 325 835 L 319 838 L 316 845 L 317 853 L 324 858 L 333 858 L 336 856 L 339 851 Q 340 843 337 840 Q 334 834 325 835 Z M 277 836 L 270 839 L 268 843 Q 267 849 269 853 L 275 857 L 284 856 L 288 851 L 288 843 L 286 839 Q 283 836 277 836 Z M 300 836 L 296 838 L 292 844 L 293 853 L 301 858 Q 307 859 310 856 L 314 850 L 313 842 Q 311 834 300 836 Z M 1121 836 L 1121 1048 L 1122 1049 L 1122 1060 L 1123 1061 L 1123 1068 L 1126 1084 L 1135 1110 Q 1143 1127 1156 1141 Q 1171 1157 1193 1167 L 1223 1177 L 1233 1179 L 1240 1179 L 1241 1180 L 1248 1180 L 1249 1181 L 1278 1181 L 1279 1180 L 1289 1180 L 1313 1175 Q 1344 1166 1365 1146 Q 1378 1134 1387 1118 L 1388 1118 L 1388 1178 L 1433 1178 L 1433 837 L 1433 836 L 1386 836 L 1386 1023 L 1385 1024 L 1385 1036 L 1384 1037 L 1382 1055 L 1377 1071 Q 1370 1088 1359 1102 Q 1345 1118 1325 1128 L 1306 1135 L 1289 1138 L 1278 1138 L 1277 1139 L 1264 1139 L 1263 1138 L 1246 1137 L 1230 1133 Q 1210 1127 1198 1114 Q 1184 1102 1177 1084 L 1171 1064 L 1170 1053 L 1169 1052 L 1169 1043 L 1168 1042 L 1168 837 L 1168 836 L 1121 836 Z M 251 837 L 249 838 L 244 843 L 243 847 L 244 852 L 252 857 Q 257 858 260 855 L 263 850 L 262 842 Q 259 836 251 837 Z M 226 838 L 224 839 L 219 846 L 221 853 L 226 856 L 234 855 L 238 849 L 237 843 Q 235 837 226 838 Z M 179 839 L 176 840 L 171 846 L 173 853 L 178 855 L 184 854 L 187 849 L 186 844 Q 184 839 179 839 Z M 201 839 L 199 840 L 195 846 L 196 852 Q 198 857 208 855 Q 213 853 212 844 Q 210 837 201 839 Z M 153 840 L 151 841 L 147 846 L 148 852 L 152 854 Q 159 855 161 851 Q 162 844 160 842 L 157 840 L 153 840 Z M 343 840 L 340 845 L 340 850 L 347 858 Q 350 857 349 860 L 346 861 L 340 869 Q 339 876 342 879 L 348 883 Q 350 882 349 885 L 343 887 L 340 894 Q 339 901 342 904 Q 344 908 350 909 L 346 910 L 340 918 Q 339 925 342 929 Q 344 933 350 934 L 346 935 L 340 943 Q 339 950 342 954 L 349 959 L 344 960 L 340 967 Q 339 973 341 977 L 347 982 L 349 983 L 343 986 L 340 992 Q 339 999 342 1003 L 349 1007 Q 355 1008 359 1006 L 365 998 L 366 1003 L 373 1008 L 370 1009 Q 365 1011 365 1017 L 363 1014 L 357 1008 Q 348 1007 345 1010 L 340 1017 Q 339 1024 342 1028 L 349 1032 Q 355 1033 359 1031 L 365 1023 L 366 1028 L 374 1033 L 370 1034 Q 365 1036 365 1042 L 363 1039 L 357 1033 Q 348 1032 345 1035 L 340 1042 L 340 1048 L 343 1054 L 350 1058 L 346 1059 L 340 1067 Q 339 1074 342 1077 L 348 1081 Q 351 1080 350 1083 L 346 1084 L 340 1092 Q 339 1099 342 1102 L 348 1106 Q 355 1108 359 1105 Q 363 1102 365 1096 L 366 1102 L 372 1106 Q 374 1105 373 1108 L 370 1109 Q 364 1111 365 1119 L 361 1110 L 354 1107 L 346 1109 Q 341 1112 340 1118 L 341 1125 L 349 1131 Q 356 1132 360 1129 Q 364 1126 365 1120 L 366 1126 Q 369 1130 375 1132 L 370 1134 L 365 1140 Q 364 1147 366 1151 L 371 1155 L 373 1155 L 388 1140 L 388 1138 L 379 1132 L 386 1129 L 390 1123 L 392 1129 L 396 1130 L 410 1111 L 409 1108 Q 406 1109 407 1106 L 411 1105 L 412 1103 L 415 1101 L 422 1088 L 431 1063 L 435 1046 L 436 1035 L 433 1033 L 435 1032 L 437 1030 Q 436 1024 438 1023 L 438 1012 L 434 1008 L 438 1005 L 437 986 Q 431 983 436 981 Q 430 941 413 913 L 408 909 L 410 908 L 395 885 L 390 891 L 388 889 L 382 884 L 387 881 L 388 878 L 372 861 L 370 861 Q 365 863 365 869 L 363 865 L 358 860 Q 355 861 356 858 L 360 857 L 362 854 L 343 840 Z M 135 845 L 125 852 L 129 854 L 133 853 L 136 849 Q 137 844 135 845 Z M 302 860 L 297 862 L 292 868 Q 291 874 293 878 Q 296 882 302 883 Q 308 883 311 880 L 314 874 L 314 870 L 311 863 Q 308 860 302 860 Z M 324 860 L 321 862 L 316 869 L 317 878 L 324 883 Q 330 884 334 882 L 339 876 Q 340 869 338 866 Q 335 858 324 860 Z M 276 861 L 272 863 L 269 866 L 267 872 L 269 878 L 276 882 Q 282 883 285 880 L 287 878 L 289 872 L 287 866 L 281 861 L 276 861 Z M 228 862 L 223 864 L 219 870 Q 218 875 221 878 L 228 881 L 235 879 L 238 873 L 236 866 Q 233 862 228 862 Z M 250 862 L 248 863 L 243 871 L 245 878 L 250 881 L 259 880 L 263 875 L 262 867 Q 260 860 250 862 Z M 202 863 L 200 864 L 195 870 L 196 877 L 201 880 L 209 879 L 212 875 Q 213 868 210 866 Q 208 862 202 863 Z M 176 864 L 171 870 Q 170 876 173 878 L 179 880 L 183 879 L 187 874 L 185 867 Q 183 863 176 864 Z M 152 865 L 150 866 L 147 870 L 148 876 L 153 879 L 157 879 L 160 877 Q 162 875 161 869 Q 160 864 152 865 Z M 127 866 L 123 870 Q 122 877 127 878 L 134 877 L 136 874 L 135 869 Q 134 864 127 866 Z M 108 867 L 100 876 L 104 878 Q 109 879 110 875 Q 111 868 108 867 Z M 327 884 L 321 886 L 316 893 Q 315 900 318 904 L 325 908 L 334 907 L 339 901 L 338 890 Q 335 884 327 884 Z M 301 885 L 295 887 L 291 897 L 293 903 Q 296 909 308 907 L 314 900 L 313 891 L 306 885 L 301 885 Z M 253 886 L 249 887 L 243 895 L 245 903 L 251 906 L 259 905 L 263 899 Q 264 892 261 889 L 253 886 Z M 275 886 L 273 887 Q 268 890 267 896 L 269 903 L 276 907 Q 282 908 285 905 L 287 903 L 289 897 L 287 891 Q 285 884 275 886 Z M 227 887 L 224 888 L 219 895 Q 218 901 221 903 L 225 905 L 234 904 L 238 898 L 236 891 Q 234 886 227 887 Z M 201 888 L 198 890 L 195 895 L 196 901 L 202 905 Q 208 906 210 903 L 212 900 L 211 892 Q 209 887 201 888 Z M 154 889 L 151 890 L 147 895 L 148 901 L 154 904 L 158 903 Q 163 902 161 894 Q 159 889 154 889 Z M 176 889 L 171 894 Q 170 903 176 904 L 184 903 L 187 899 L 186 893 Q 184 887 176 889 Z M 128 890 L 126 891 Q 122 893 123 900 L 128 903 L 134 902 L 136 898 L 134 891 L 128 890 Z M 103 891 L 100 892 Q 98 894 99 900 Q 101 903 108 902 Q 112 900 110 894 Q 108 890 103 891 Z M 84 894 L 79 902 Q 84 903 85 899 Q 86 895 84 894 Z M 325 909 L 321 911 L 316 918 Q 315 925 318 929 L 321 931 L 327 933 L 335 931 L 339 925 Q 340 917 337 914 Q 334 908 325 909 Z M 277 910 L 272 912 L 267 920 L 269 928 L 274 931 L 283 931 L 286 929 L 289 922 L 286 913 Q 283 910 277 910 Z M 300 910 L 297 911 Q 292 914 291 921 L 293 928 L 300 932 Q 307 933 310 930 L 314 924 Q 315 916 312 913 L 307 910 L 300 910 Z M 251 911 L 247 913 L 243 919 L 244 926 L 251 931 Q 257 932 260 929 L 263 924 L 262 916 L 256 911 L 251 911 Z M 226 912 L 221 914 L 219 919 L 219 924 L 225 930 L 234 929 L 237 926 L 238 922 L 237 917 Q 235 911 226 912 Z M 178 913 L 175 914 L 171 919 L 172 926 L 177 929 L 184 928 L 187 923 L 185 915 L 178 913 Z M 200 913 L 195 919 L 196 926 L 203 930 L 208 929 L 212 924 L 211 917 Q 209 911 200 913 Z M 152 914 Q 146 915 147 925 Q 149 930 158 928 Q 163 927 161 919 L 157 914 L 152 914 Z M 127 915 L 123 919 L 124 926 L 128 928 L 133 927 L 136 923 L 135 918 Q 133 914 127 915 Z M 79 916 Q 74 917 75 924 Q 76 927 83 926 L 85 923 L 84 919 Q 83 915 79 916 Z M 102 916 L 99 919 Q 98 926 103 927 L 109 926 Q 111 924 110 919 Q 109 915 102 916 Z M 324 934 L 322 935 L 316 942 L 316 950 L 319 955 L 324 957 Q 332 958 336 955 L 339 950 Q 340 943 338 940 Q 335 932 324 934 Z M 276 935 L 273 936 L 267 944 L 267 948 L 270 954 L 275 956 L 284 955 L 288 950 Q 289 943 287 940 L 281 935 L 276 935 Z M 299 935 L 297 936 Q 292 939 291 946 L 292 951 Q 294 956 301 957 Q 307 958 310 955 L 314 949 L 314 944 L 311 937 Q 307 934 299 935 Z M 250 936 L 248 937 L 243 944 L 244 951 L 252 956 L 258 955 L 263 949 L 262 941 Q 260 934 250 936 Z M 203 937 L 197 939 L 195 944 L 196 951 L 201 954 L 209 953 L 212 949 L 211 942 Q 209 937 203 937 Z M 225 937 L 223 938 L 219 944 L 220 951 L 226 955 Q 232 956 235 953 L 238 947 L 236 941 Q 234 935 225 937 Z M 176 938 L 171 943 L 172 951 L 177 954 L 183 953 L 187 947 L 185 941 Q 183 937 176 938 Z M 152 939 L 147 943 L 148 951 L 152 953 L 159 952 L 161 949 L 160 942 Q 158 938 152 939 Z M 104 940 L 99 944 Q 98 951 103 952 L 108 951 Q 111 950 110 944 Q 108 940 104 940 Z M 127 940 L 124 941 L 123 944 Q 122 949 124 951 Q 126 953 133 952 L 136 948 L 135 943 Q 134 939 127 940 Z M 78 941 L 75 944 Q 74 950 78 951 L 84 950 L 85 945 Q 84 940 78 941 Z M 57 944 L 56 950 L 59 949 Q 61 943 57 944 Z M 302 959 L 295 961 L 291 971 L 293 977 L 298 981 L 302 982 Q 308 982 311 979 L 314 973 Q 315 965 311 963 Q 308 959 302 959 Z M 324 959 L 318 962 L 316 967 Q 315 973 317 977 L 324 982 Q 330 983 334 981 L 339 975 Q 340 966 337 962 L 332 959 L 324 959 Z M 275 960 L 269 963 L 267 969 L 268 976 L 275 981 L 284 980 L 288 975 Q 289 968 287 965 Q 285 958 275 960 Z M 228 961 L 223 963 L 219 968 L 220 976 L 227 980 L 233 979 L 237 975 L 238 971 L 236 964 L 228 961 Z M 250 961 L 248 962 L 243 968 L 244 976 L 250 980 L 259 979 L 263 973 L 262 966 Q 260 959 250 961 Z M 202 962 L 198 964 L 195 968 L 196 976 L 201 979 L 207 979 L 210 977 L 212 973 L 211 967 Q 209 961 202 962 Z M 176 963 L 171 968 L 172 976 L 176 978 L 184 977 L 186 975 L 187 971 L 186 967 Q 184 962 176 963 Z M 128 964 L 126 965 L 123 969 Q 122 976 127 977 Q 132 978 134 976 L 136 972 L 135 968 Q 134 963 128 964 Z M 151 964 L 147 968 Q 146 974 148 976 L 152 978 Q 159 979 161 974 L 160 967 Q 158 963 151 964 Z M 103 965 L 101 966 Q 98 967 99 974 Q 101 978 108 976 Q 111 974 110 969 Q 109 964 103 965 Z M 78 966 Q 74 967 75 974 L 79 976 L 83 975 L 85 972 L 84 967 L 78 966 Z M 53 967 L 51 969 Q 50 974 53 975 Q 58 976 59 973 L 58 969 Q 59 966 53 967 Z M 327 983 L 319 986 L 316 992 Q 315 998 317 1002 L 325 1007 Q 332 1008 335 1005 L 339 999 L 338 990 Q 335 983 327 983 Z M 301 984 L 298 985 Q 292 988 291 996 L 293 1002 L 299 1006 Q 305 1007 309 1005 L 314 998 Q 315 990 311 988 Q 308 983 301 984 Z M 252 985 L 245 988 L 243 993 Q 242 999 245 1002 L 250 1005 L 259 1004 L 263 998 L 262 991 Q 260 985 252 985 Z M 274 985 L 270 987 L 267 994 Q 266 999 269 1002 L 277 1006 L 283 1005 L 288 999 L 287 990 Q 284 983 274 985 Z M 227 986 L 224 987 L 219 993 L 220 1001 Q 223 1006 233 1004 L 237 999 L 236 990 Q 234 985 227 986 Z M 201 987 L 199 988 L 195 993 L 195 999 L 197 1002 L 202 1004 L 208 1003 L 212 998 L 211 991 Q 209 986 201 987 Z M 154 988 L 151 989 Q 146 991 147 999 L 154 1003 L 158 1002 L 161 998 L 160 992 Q 158 988 154 988 Z M 176 988 L 174 989 Q 170 991 171 999 L 177 1003 Q 184 1004 186 999 L 185 991 Q 183 987 176 988 Z M 128 989 L 126 990 Q 122 992 123 999 L 128 1002 L 133 1001 L 136 996 L 135 993 Q 134 988 128 989 Z M 103 990 L 99 993 Q 98 1000 102 1001 Q 107 1002 109 1000 L 110 998 L 109 991 L 103 990 Z M 55 991 L 53 992 Q 50 993 51 998 Q 52 1001 57 1000 Q 60 999 59 994 L 55 991 Z M 77 991 L 74 996 L 75 999 L 80 1001 L 83 1000 L 85 997 L 84 993 Q 83 990 77 991 Z M 327 1008 L 321 1010 L 316 1017 Q 315 1024 318 1028 L 321 1030 L 327 1032 Q 333 1032 336 1029 L 339 1024 Q 340 1016 337 1013 Q 334 1008 327 1008 Z M 299 1009 L 297 1010 Q 292 1013 291 1020 L 293 1027 L 300 1031 Q 307 1032 310 1029 L 314 1022 L 312 1014 Q 309 1007 299 1009 Z M 252 1010 L 245 1013 L 243 1018 Q 242 1024 245 1027 L 251 1030 L 258 1029 L 263 1023 L 262 1016 Q 260 1010 252 1010 Z M 274 1010 L 271 1012 L 267 1019 L 269 1027 L 274 1030 Q 280 1031 284 1029 L 288 1024 L 287 1015 Q 284 1008 274 1010 Z M 226 1011 L 221 1013 L 219 1018 Q 218 1024 221 1027 L 225 1029 L 234 1028 L 237 1024 L 236 1015 Q 233 1010 226 1011 Z M 178 1012 L 175 1013 Q 170 1015 171 1024 L 177 1028 L 183 1027 Q 188 1025 186 1017 Q 184 1012 178 1012 Z M 201 1012 L 196 1014 Q 194 1017 195 1024 L 203 1029 L 208 1028 L 212 1022 L 211 1016 Q 209 1011 201 1012 Z M 152 1013 L 147 1017 Q 145 1025 151 1027 L 159 1026 L 161 1022 L 160 1017 Q 158 1012 152 1013 Z M 127 1014 L 122 1021 L 123 1024 L 128 1027 L 133 1026 Q 137 1025 135 1018 Q 134 1013 127 1014 Z M 79 1015 L 77 1016 Q 74 1017 75 1023 Q 76 1026 82 1025 Q 85 1024 84 1018 L 79 1015 Z M 102 1015 L 98 1021 L 99 1024 L 103 1026 L 108 1025 L 110 1022 L 109 1016 Q 107 1014 102 1015 Z M 54 1016 Q 50 1017 51 1023 L 55 1025 L 58 1024 Q 60 1023 59 1019 L 54 1016 Z M 325 1033 L 321 1035 L 316 1042 L 317 1051 L 324 1056 Q 330 1057 334 1055 L 339 1048 Q 340 1041 337 1038 Q 334 1032 325 1033 Z M 277 1034 L 272 1036 L 267 1044 L 268 1050 L 275 1055 L 284 1054 L 288 1048 L 287 1040 Q 285 1034 277 1034 Z M 299 1034 L 297 1035 Q 292 1038 291 1045 L 293 1051 L 298 1055 L 302 1056 Q 308 1056 311 1053 L 314 1046 L 312 1039 Q 309 1032 299 1034 Z M 251 1035 L 247 1037 L 243 1043 L 244 1050 L 250 1054 L 259 1053 L 262 1050 L 263 1046 L 261 1039 Q 258 1034 251 1035 Z M 203 1036 L 198 1038 L 195 1042 L 196 1050 L 201 1053 L 209 1052 L 212 1047 L 211 1041 Q 209 1036 203 1036 Z M 226 1036 L 221 1038 L 219 1043 L 220 1050 L 226 1054 L 233 1053 L 237 1048 L 236 1040 Q 233 1035 226 1036 Z M 177 1037 L 171 1042 L 172 1050 L 177 1053 L 183 1052 Q 187 1050 186 1042 Q 184 1036 177 1037 Z M 152 1038 L 147 1042 L 148 1050 L 152 1052 L 158 1051 L 161 1047 L 160 1042 Q 159 1037 152 1038 Z M 103 1039 Q 98 1040 99 1048 L 104 1051 L 108 1050 L 110 1047 L 109 1042 Q 108 1038 103 1039 Z M 127 1039 L 124 1040 L 123 1043 Q 122 1048 124 1050 L 127 1051 Q 132 1052 134 1050 L 135 1048 Q 136 1042 134 1040 Q 132 1038 127 1039 Z M 79 1040 L 77 1041 Q 74 1042 75 1048 Q 76 1051 82 1050 Q 85 1049 84 1043 L 79 1040 Z M 54 1041 L 53 1042 Q 50 1041 51 1048 Q 52 1050 57 1049 Q 60 1048 59 1044 Q 58 1040 54 1041 Z M 325 1058 L 319 1060 L 316 1067 L 317 1076 L 324 1081 Q 330 1082 334 1080 L 339 1073 Q 340 1066 337 1063 Q 334 1057 325 1058 Z M 277 1059 L 272 1061 L 267 1069 L 269 1076 L 276 1080 L 283 1079 L 288 1073 L 287 1065 Q 284 1060 277 1059 Z M 299 1059 L 297 1060 Q 292 1063 291 1070 L 293 1076 L 299 1080 Q 305 1081 309 1079 Q 313 1076 314 1070 L 312 1064 Q 309 1057 299 1059 Z M 251 1060 L 247 1062 L 243 1068 L 244 1075 L 250 1079 L 259 1078 L 261 1076 L 263 1070 L 261 1063 L 256 1060 L 251 1060 Z M 203 1061 L 197 1063 L 195 1067 L 196 1075 L 201 1078 L 208 1077 L 212 1071 L 211 1066 Q 209 1061 203 1061 Z M 225 1061 L 223 1062 L 219 1068 L 220 1075 L 228 1079 L 234 1077 L 237 1073 L 236 1065 Q 234 1059 225 1061 Z M 177 1062 L 171 1067 L 172 1075 L 176 1077 Q 185 1079 186 1073 L 185 1066 Q 183 1061 177 1062 Z M 152 1063 L 150 1064 Q 146 1066 147 1073 L 153 1077 L 159 1075 L 161 1071 L 160 1067 Q 159 1062 152 1063 Z M 103 1064 Q 98 1065 99 1073 Q 100 1076 107 1075 L 110 1071 L 109 1067 Q 108 1063 103 1064 Z M 127 1064 L 124 1065 Q 122 1067 123 1073 Q 124 1077 132 1076 Q 136 1075 135 1068 Q 134 1063 127 1064 Z M 78 1065 Q 74 1066 75 1073 L 79 1075 L 83 1074 Q 85 1073 84 1068 Q 83 1064 78 1065 Z M 56 1066 L 57 1071 Q 56 1073 59 1072 L 58 1068 L 56 1066 Z M 325 1083 L 321 1085 L 316 1092 L 317 1101 L 325 1106 Q 333 1107 336 1103 L 339 1097 Q 340 1090 337 1088 Q 334 1082 325 1083 Z M 277 1084 L 272 1086 L 267 1094 L 269 1101 L 277 1105 L 284 1103 L 288 1097 L 288 1093 L 286 1087 L 277 1084 Z M 299 1084 L 297 1085 L 292 1091 Q 291 1097 293 1101 L 299 1105 Q 305 1106 309 1104 L 313 1099 Q 314 1092 312 1089 Q 309 1082 299 1084 Z M 250 1085 L 248 1086 L 243 1093 Q 242 1098 245 1101 L 251 1104 L 258 1103 Q 264 1101 262 1091 Q 260 1084 250 1085 Z M 203 1086 L 197 1088 L 195 1092 L 195 1098 L 197 1101 L 202 1103 L 208 1102 L 212 1095 L 211 1091 Q 209 1086 203 1086 Z M 225 1086 L 223 1087 L 219 1093 Q 218 1098 221 1101 L 225 1103 L 234 1102 L 237 1097 L 236 1090 Q 234 1084 225 1086 Z M 177 1087 L 175 1088 Q 170 1090 171 1098 L 177 1102 L 183 1101 L 186 1097 L 185 1091 Q 183 1086 177 1087 Z M 128 1088 L 126 1089 Q 122 1091 123 1098 L 129 1101 L 133 1100 L 135 1097 L 134 1091 Q 133 1087 128 1088 Z M 151 1088 Q 146 1090 147 1098 Q 149 1103 157 1101 L 161 1095 L 160 1092 Q 159 1087 151 1088 Z M 103 1089 Q 98 1090 99 1098 L 103 1100 L 108 1099 L 110 1095 L 109 1092 Q 108 1088 103 1089 Z M 78 1090 L 75 1093 L 76 1098 Q 75 1100 82 1099 Q 85 1098 84 1093 Q 83 1089 78 1090 Z M 324 1108 L 322 1109 L 316 1117 L 316 1123 L 319 1128 L 327 1131 L 334 1129 Q 338 1126 339 1121 Q 339 1114 336 1112 Q 333 1107 324 1108 Z M 276 1109 L 269 1112 L 267 1120 L 268 1124 L 274 1129 Q 280 1130 284 1128 L 288 1121 L 286 1112 L 281 1109 L 276 1109 Z M 299 1109 L 297 1110 L 292 1116 L 293 1125 L 300 1130 L 308 1129 L 313 1123 L 312 1114 Q 309 1107 299 1109 Z M 250 1110 L 248 1111 L 244 1115 L 243 1119 L 244 1124 L 252 1129 L 259 1127 L 262 1123 L 262 1116 L 260 1112 Q 257 1109 250 1110 Z M 201 1111 L 199 1112 L 195 1117 L 196 1124 L 201 1127 Q 210 1129 211 1123 L 210 1115 Q 208 1110 201 1111 Z M 225 1111 L 223 1112 L 219 1118 L 220 1124 L 226 1128 L 233 1127 L 237 1122 Q 238 1115 235 1113 L 232 1111 L 225 1111 Z M 176 1112 L 171 1117 L 172 1124 L 177 1127 L 184 1125 L 186 1121 L 185 1116 Q 184 1111 176 1112 Z M 128 1113 L 123 1117 Q 122 1124 126 1125 Q 132 1126 134 1124 L 135 1122 L 134 1115 L 131 1113 L 128 1113 Z M 151 1113 L 147 1117 L 148 1124 L 152 1126 L 158 1125 Q 162 1124 160 1117 Q 159 1112 151 1113 Z M 103 1114 L 100 1115 L 99 1118 L 100 1124 L 103 1125 L 108 1124 Q 110 1123 109 1117 Q 108 1113 103 1114 Z M 79 1115 L 84 1122 L 84 1118 Q 83 1114 79 1115 Z M 351 1132 L 346 1134 Q 341 1137 340 1144 L 342 1151 Q 345 1155 351 1156 L 358 1155 Q 363 1153 364 1147 L 363 1139 Q 360 1132 351 1132 Z M 324 1133 L 322 1134 L 316 1142 L 317 1150 L 324 1155 L 334 1154 Q 338 1151 339 1145 L 337 1138 Q 334 1132 324 1133 Z M 276 1134 L 273 1135 L 268 1141 L 269 1150 L 276 1154 L 283 1153 L 287 1149 L 288 1145 L 287 1140 Q 284 1134 276 1134 Z M 299 1134 L 297 1135 L 292 1142 L 293 1150 Q 296 1154 302 1155 L 309 1153 L 313 1147 L 312 1139 Q 309 1132 299 1134 Z M 250 1135 L 248 1136 L 243 1144 L 245 1150 L 250 1153 Q 257 1154 260 1151 L 262 1148 L 262 1141 L 260 1137 Q 257 1134 250 1135 Z M 201 1136 L 199 1137 L 195 1143 L 196 1149 L 201 1152 Q 210 1154 211 1148 L 210 1140 Q 208 1135 201 1136 Z M 225 1136 L 222 1138 L 219 1143 L 221 1150 L 228 1153 L 234 1151 L 237 1145 L 236 1140 L 232 1136 L 225 1136 Z M 176 1137 L 172 1139 L 171 1142 L 172 1149 Q 174 1152 182 1151 L 186 1146 L 185 1141 Q 184 1136 176 1137 Z M 128 1138 L 126 1139 Q 122 1140 123 1147 Q 124 1151 132 1150 Q 136 1149 135 1143 L 131 1138 L 128 1138 Z M 151 1138 L 147 1142 Q 146 1147 148 1149 L 152 1151 L 158 1150 Q 161 1148 160 1142 Q 159 1137 151 1138 Z M 103 1139 L 102 1140 Q 99 1139 100 1143 L 107 1149 L 109 1147 L 108 1140 L 103 1139 Z M 351 1157 L 346 1159 L 341 1165 Q 340 1173 342 1176 L 345 1176 L 361 1165 L 362 1163 Q 359 1157 351 1157 Z M 324 1158 L 322 1159 Q 317 1162 316 1168 L 318 1176 L 325 1180 L 333 1179 L 338 1173 Q 339 1165 336 1162 Q 333 1157 324 1158 Z M 276 1159 L 273 1160 L 268 1166 L 269 1175 L 277 1179 L 284 1177 L 287 1173 L 286 1164 Q 284 1158 276 1159 Z M 299 1159 L 297 1160 L 292 1167 Q 291 1173 294 1176 L 299 1179 Q 305 1180 309 1178 L 313 1172 Q 314 1165 311 1163 Q 308 1157 299 1159 Z M 250 1160 L 248 1161 L 244 1166 L 245 1175 L 250 1178 L 258 1177 L 262 1172 Q 263 1165 260 1162 Q 257 1159 250 1160 Z M 201 1161 L 199 1162 L 195 1168 L 197 1175 L 202 1177 L 209 1175 L 211 1172 L 210 1165 Q 208 1160 201 1161 Z M 225 1161 L 223 1162 L 219 1169 L 221 1175 L 225 1177 L 234 1176 L 236 1173 L 235 1164 Q 232 1160 225 1161 Z M 176 1162 L 171 1168 Q 171 1174 176 1176 L 183 1175 L 186 1170 L 185 1166 Q 184 1161 176 1162 Z M 128 1163 L 127 1164 Q 124 1163 125 1166 L 134 1171 L 134 1167 Q 132 1163 128 1163 Z M 151 1163 L 147 1168 L 148 1173 Q 150 1177 157 1175 Q 161 1174 160 1167 Q 159 1161 151 1163 Z M 325 1183 L 318 1188 L 319 1189 L 330 1184 L 325 1183 Z M 277 1184 L 272 1186 L 268 1192 Q 267 1200 273 1202 L 285 1200 L 287 1197 L 286 1189 Q 283 1184 277 1184 Z M 299 1184 L 297 1185 L 292 1192 Q 291 1196 294 1197 L 301 1196 L 312 1192 L 310 1186 L 307 1184 L 299 1184 Z M 250 1185 L 248 1186 L 244 1191 L 245 1199 L 252 1203 L 259 1201 L 262 1196 L 261 1190 Q 259 1184 250 1185 Z M 201 1186 L 195 1194 L 196 1198 Q 200 1201 207 1201 L 211 1196 L 210 1190 Q 208 1185 201 1186 Z M 225 1186 L 222 1187 L 220 1191 L 220 1198 L 226 1202 L 233 1201 Q 237 1199 236 1191 Q 234 1184 225 1186 Z M 176 1187 L 172 1191 L 184 1195 L 185 1196 L 184 1190 Q 182 1186 176 1187 Z " /><path fill="rgb(0,0,0)" stroke="rgb(0,0,0)" stroke-width="1" opacity="0" d="M 364.5 874 Q 365.4 879.6 369.5 882 L 372 883.5 Q 372.8 885.8 370.5 885 L 368 886 L 364.5 893 L 358.5 885 Q 354.8 886 356 883 Q 360.7 882.6 363 878.5 L 364.5 874 Z " /><path fill="rgb(0,0,0)" stroke="rgb(0,0,0)" stroke-width="1" opacity="0" d="M 1756.5 874 L 1774.5 874 L 1775.5 875 L 1790.5 876 L 1806.5 880 L 1819.5 885 Q 1845.2 896.8 1862 917.5 L 1873 933.5 L 1885 960.5 L 1891 991.5 L 1891 1022.5 L 1890 1023.5 L 1890 1031.5 L 1888 1041.5 L 1880 1066.5 Q 1868 1094 1846.5 1112 Q 1827.9 1127.4 1801.5 1135 L 1780.5 1139 L 1750.5 1139 L 1725.5 1134 L 1701.5 1124 Q 1683.2 1113.8 1670 1098.5 Q 1655.5 1082 1647 1059.5 L 1640 1032.5 L 1639 1008.5 L 1638 1006.5 L 1639 1005.5 L 1639 988.5 L 1640 987.5 L 1641 975.5 L 1649 949.5 Q 1661.1 921.6 1682.5 903 Q 1696.8 890.8 1715.5 883 L 1739.5 876 L 1755.5 875 L 1756.5 874 Z " /><path fill="rgb(0,0,0)" stroke="rgb(0,0,0)" stroke-width="1" opacity="0" d="M 364.5 899 Q 365.4 904.6 369.5 907 L 373 908.5 L 366 913.5 L 364.5 918 L 360.5 911 L 354 908.5 Q 359.9 908.4 362 904.5 L 364.5 899 Z " /><path fill="rgb(0,0,0)" stroke="rgb(0,0,0)" stroke-width="1" opacity="0" d="M 389.5 901 L 394.5 908 L 396 908.5 L 390 913.5 L 389.5 916 L 384.5 910 L 381 908.5 L 389 902.5 L 389.5 901 Z " /><path fill="rgb(0,0,0)" stroke="rgb(0,0,0)" stroke-width="1" opacity="0" d="M 364.5 924 L 368.5 931 L 372 933.5 L 366 938.5 L 364.5 943 Q 363.6 937.4 359.5 935 L 354 933.5 L 362 929.5 L 364.5 924 Z " /><path fill="rgb(0,0,0)" stroke="rgb(0,0,0)" stroke-width="1" opacity="0" d="M 389.5 926 L 394.5 933 L 396 933.5 L 391 936 L 389.5 940 L 387 936 L 382 933.5 L 388 928.5 L 389.5 926 Z " /><path fill="rgb(0,0,0)" stroke="rgb(0,0,0)" stroke-width="1" opacity="0" d="M 413 928 Q 415.7 926.9 415 929.5 L 419 932 L 414.5 939 L 413 936 L 408 933.5 L 413 929.5 L 413 928 Z " /><path fill="rgb(0,0,0)" stroke="rgb(0,0,0)" stroke-width="1" opacity="0" d="M 364.5 949 L 365 951.5 L 370.5 957 Q 373.1 956.3 372 959 L 366 963.5 L 364.5 967 L 359.5 960 L 355 958.5 L 363 952.5 L 364.5 949 Z " /><path fill="rgb(0,0,0)" stroke="rgb(0,0,0)" stroke-width="1" opacity="0" d="M 389.5 951 L 392 956 L 395 957.5 L 389.5 965 L 385.5 960 L 382 958.5 L 388 953.5 L 389.5 951 Z " /><path fill="rgb(0,0,0)" stroke="rgb(0,0,0)" stroke-width="1" opacity="0" d="M 413.5 953 L 416 954.5 Q 415.3 956.8 417.5 956 L 419 958.5 L 413.5 963 L 408 958.5 L 412 956 L 413.5 953 Z " /><path fill="rgb(0,0,0)" stroke="rgb(0,0,0)" stroke-width="1" opacity="0" d="M 364.5 973 Q 365.6 979.4 370.5 982 Q 373.1 981.3 372 984 L 367 986 L 364.5 992 L 359.5 985 L 355 982.5 Q 360.6 981.6 363 977.5 L 364.5 973 Z " /><path fill="rgb(0,0,0)" stroke="rgb(0,0,0)" stroke-width="1" opacity="0" d="M 389.5 976 L 394.5 982 L 396 982.5 L 389.5 990 L 385.5 985 L 382 982.5 L 389.5 976 Z " /><path fill="rgb(0,0,0)" stroke="rgb(0,0,0)" stroke-width="1" opacity="0" d="M 414.5 977 L 418.5 982 L 420 982.5 L 416 985 L 414.5 988 L 408 984 Q 406.9 981.3 409.5 982 L 414.5 977 Z " /><path fill="rgb(0,0,0)" stroke="rgb(0,0,0)" stroke-width="1" opacity="0" d="M 388 1001 Q 390.7 999.9 390 1002.5 L 396 1007.5 L 391 1011.5 L 389.5 1015 L 384.5 1009 L 381 1007.5 L 388 1002.5 L 388 1001 Z " /><path fill="rgb(0,0,0)" stroke="rgb(0,0,0)" stroke-width="1" opacity="0" d="M 413 1002 Q 415.7 1000.9 415 1003.5 L 420 1007.5 L 413 1013 L 410.5 1009 L 408 1007.5 L 413 1003.5 L 413 1002 Z " /><path fill="rgb(0,0,0)" stroke="rgb(0,0,0)" stroke-width="1" opacity="0" d="M 389.5 1025 L 393.5 1031 L 396 1032.5 L 392 1035.5 L 389.5 1040 L 384.5 1034 L 380 1032.5 Q 385.6 1031.6 388 1027.5 L 389.5 1025 Z " /><path fill="rgb(0,0,0)" stroke="rgb(0,0,0)" stroke-width="1" opacity="0" d="M 413 1027 L 420 1032.5 L 416 1035.5 L 414.5 1038 L 412 1036.5 Q 412.8 1034.3 410.5 1035 L 407 1032.5 L 413 1028.5 L 413 1027 Z " /><path fill="rgb(0,0,0)" stroke="rgb(0,0,0)" stroke-width="1" opacity="0" d="M 364.5 1047 Q 365.6 1053.4 370.5 1056 L 373 1057.5 L 368 1059 L 364.5 1067 L 362 1061 L 354 1057.5 L 362 1052.5 L 364.5 1047 Z " /><path fill="rgb(0,0,0)" stroke="rgb(0,0,0)" stroke-width="1" opacity="0" d="M 389.5 1050 L 396 1057.5 L 391 1061.5 L 389.5 1065 L 386 1059 L 381 1057.5 L 387 1054 L 389.5 1050 Z " /><path fill="rgb(0,0,0)" stroke="rgb(0,0,0)" stroke-width="1" opacity="0" d="M 414.5 1051 L 420 1057.5 L 416 1060.5 L 414.5 1063 Q 412.3 1063.8 413 1061.5 L 408 1057.5 Q 407.3 1055.3 409.5 1056 L 414.5 1051 Z " /><path fill="rgb(0,0,0)" stroke="rgb(0,0,0)" stroke-width="1" opacity="0" d="M 364.5 1072 Q 365.4 1077.6 369.5 1080 L 373 1081 Q 374.1 1083.7 371.5 1083 L 368 1084 L 364.5 1093 L 362 1086 L 354 1083 Q 352.8 1080 356.5 1081 L 363 1075.5 L 364.5 1072 Z " /><path fill="rgb(0,0,0)" stroke="rgb(0,0,0)" stroke-width="1" opacity="0" d="M 388 1075 Q 390.7 1073.9 390 1076.5 L 396 1081 L 394.5 1084 L 391 1086.5 L 389.5 1090 L 386 1084 L 381 1083 Q 379.8 1080 383.5 1081 L 388 1075 Z " /><path fill="rgb(0,0,0)" stroke="rgb(0,0,0)" stroke-width="1" opacity="0" d="M 413 1076 Q 415.7 1074.9 415 1077.5 L 420 1081 L 418.5 1084 L 415 1086.5 Q 415.8 1088.8 413.5 1088 L 410.5 1084 L 407 1082.5 L 413 1077.5 L 413 1076 Z " /><path fill="rgb(0,0,0)" stroke="rgb(0,0,0)" stroke-width="1" opacity="0" d="M 389.5 1099 L 393.5 1105 L 396 1106.5 Q 396.8 1108.8 394.5 1108 L 389.5 1115 L 386 1109 L 381 1108 Q 379.9 1105.3 382.5 1106 L 388 1101.5 L 389.5 1099 Z " /></svg>